if (_typeface_js && _typeface_js.loadFace) _typeface_js.loadFace({"glyphs":{"0":{"ha":981,"x_min":99,"x_max":882,"o":"m 772 128 q 717 56 772 128 q 490 -17 663 -17 q 208 127 318 -17 q 99 486 99 271 q 208 845 99 701 q 490 989 318 989 q 772 844 663 989 q 882 486 882 700 q 772 128 882 272 m 490 49 q 722 173 631 49 q 813 486 813 297 q 722 798 813 674 q 490 922 631 922 q 260 798 351 922 q 168 486 168 674 q 260 174 168 299 q 490 49 351 49 z "},"1":{"ha":506,"x_min":51,"x_max":344,"o":"m 275 0 l 275 897 l 51 761 l 51 831 l 281 972 l 344 972 l 344 0 l 275 0 z "},"2":{"ha":794,"x_min":63,"x_max":717,"o":"m 63 0 l 64 54 l 404 383 q 561 558 515 490 q 607 713 607 626 q 542 864 607 806 q 368 922 476 922 q 83 786 211 922 l 83 871 q 375 989 201 989 q 592 914 507 989 q 678 718 678 839 q 629 542 678 621 q 463 350 581 464 l 168 64 l 717 64 l 717 0 l 63 0 z "},"3":{"ha":788,"x_min":57,"x_max":699,"o":"m 336 -17 q 57 54 169 -17 l 57 129 q 331 49 165 49 q 540 117 451 49 q 629 303 629 186 q 550 478 629 411 q 340 546 471 546 q 242 535 293 546 l 242 583 l 568 908 l 101 908 l 101 972 l 664 972 l 664 921 l 347 604 q 594 523 489 603 q 699 303 699 443 q 595 72 699 161 q 336 -17 492 -17 z "},"4":{"ha":872,"x_min":54,"x_max":822,"o":"m 589 0 l 589 281 l 54 281 l 54 338 l 592 972 l 658 972 l 658 344 l 822 344 l 822 281 l 658 281 l 658 0 l 589 0 m 139 344 l 589 344 l 589 875 l 139 344 z "},"5":{"ha":829,"x_min":90,"x_max":735,"o":"m 357 -17 q 90 47 203 -17 l 90 119 q 356 49 206 49 q 577 121 489 49 q 665 301 665 193 q 583 474 665 406 q 367 542 501 542 q 133 503 240 542 l 197 972 l 667 972 l 667 908 l 251 908 l 207 586 q 382 607 274 607 q 634 520 533 607 q 735 301 735 433 q 627 73 735 163 q 357 -17 519 -17 z "},"6":{"ha":886,"x_min":103,"x_max":790,"o":"m 465 -17 q 201 103 299 -17 q 103 438 103 222 q 217 833 103 676 q 519 989 331 989 q 722 929 635 989 l 722 861 q 525 922 629 922 q 328 853 410 922 q 209 678 246 785 q 172 442 172 572 q 289 566 208 517 q 475 615 369 615 q 699 528 607 615 q 790 308 790 442 q 697 75 790 167 q 465 -17 604 -17 m 464 49 q 646 122 571 49 q 721 307 721 196 q 645 483 721 415 q 460 550 569 550 q 287 490 365 550 q 178 339 208 429 q 265 125 193 201 q 464 49 336 49 z "},"7":{"ha":757,"x_min":67,"x_max":692,"o":"m 150 0 l 610 908 l 67 908 l 67 972 l 692 972 l 692 921 l 224 0 l 150 0 z "},"8":{"ha":897,"x_min":83,"x_max":813,"o":"m 588 515 q 752 424 692 490 q 813 261 813 358 q 709 60 813 136 q 449 -17 606 -17 q 188 60 292 -17 q 83 261 83 136 q 144 424 83 358 q 308 515 204 490 q 181 600 229 542 q 133 739 133 658 q 222 919 133 850 q 449 989 311 989 q 673 919 583 989 q 763 739 763 850 q 715 600 763 658 q 588 515 668 542 m 203 735 q 273 599 203 653 q 450 544 343 544 q 624 599 554 544 q 693 735 693 653 q 624 871 693 819 q 450 922 556 922 q 272 871 342 922 q 203 735 203 819 m 447 49 q 657 110 572 49 q 742 265 742 172 q 658 419 742 360 q 447 479 574 479 q 238 419 322 479 q 154 265 154 360 q 239 110 154 172 q 447 49 324 49 z "},"9":{"ha":886,"x_min":97,"x_max":785,"o":"m 422 989 q 687 869 589 989 q 785 535 785 750 q 671 140 785 296 q 368 -17 557 -17 q 165 43 253 -17 l 165 111 q 363 49 257 49 q 559 117 478 49 q 677 292 640 186 q 715 531 714 399 q 598 406 679 456 q 413 357 517 357 q 189 444 281 357 q 97 664 97 531 q 190 897 97 806 q 422 989 283 989 m 424 922 q 241 849 315 922 q 167 665 167 776 q 242 490 167 557 q 428 422 318 422 q 601 483 522 422 q 710 633 679 543 q 623 847 694 771 q 424 922 551 922 z "}," ":{"ha":371,"x_min":0,"x_max":0,"o":""},"!":{"ha":371,"x_min":131,"x_max":242,"o":"m 154 290 l 144 972 l 226 972 l 217 290 l 154 290 m 147 12 q 139 20 147 12 q 131 51 131 28 q 147 91 131 75 q 186 107 164 107 q 225 91 208 107 q 242 51 242 75 q 225 12 242 28 q 186 -4 208 -4 q 147 12 164 -4 z "},"\"":{"ha":479,"x_min":82,"x_max":397,"o":"m 82 640 l 82 972 l 147 972 l 147 640 l 82 640 m 333 640 l 333 972 l 397 972 l 397 640 l 333 640 z "},"#":{"ha":992,"x_min":47,"x_max":944,"o":"m 208 0 l 251 274 l 47 274 l 58 335 l 260 335 l 308 636 l 104 636 l 115 697 l 317 697 l 363 972 l 426 972 l 383 697 l 675 697 l 718 972 l 783 972 l 740 697 l 944 697 l 935 636 l 731 636 l 683 335 l 888 335 l 878 274 l 672 274 l 629 0 l 564 0 l 608 274 l 317 274 l 272 0 l 208 0 m 326 335 l 618 335 l 665 636 l 375 636 l 326 335 z "},"$":{"ha":867,"x_min":67,"x_max":774,"o":"m 457 -158 l 386 -158 l 386 -15 q 203 19 288 -10 q 67 88 118 49 l 67 167 q 216 84 121 119 q 417 49 311 49 q 622 105 542 49 q 703 256 703 161 q 694 311 703 286 q 674 354 685 336 q 637 390 663 372 q 594 417 611 407 q 538 440 578 426 q 479 458 499 453 q 413 478 460 464 q 285 519 331 501 q 190 567 239 536 q 118 642 140 597 q 96 747 96 686 q 172 912 96 844 q 386 988 247 979 l 386 1131 l 457 1131 l 457 988 q 715 907 601 979 l 715 833 q 422 922 585 922 q 230 872 294 922 q 165 746 165 821 q 174 697 165 719 q 193 658 183 674 q 229 625 203 642 q 271 599 256 608 q 326 577 286 590 q 384 558 367 564 q 451 539 401 553 q 546 510 510 522 q 631 473 582 497 q 706 422 679 449 q 753 351 733 394 q 774 256 774 308 q 683 64 774 135 q 457 -15 592 -7 l 457 -158 z "},"%":{"ha":1143,"x_min":75,"x_max":1068,"o":"m 183 631 q 206 606 183 631 q 303 581 229 581 q 424 631 376 581 q 471 757 471 682 q 424 883 471 832 q 303 933 376 933 q 183 883 229 933 q 136 757 136 832 q 183 631 136 682 m 466 592 q 434 559 466 592 q 303 525 401 525 q 140 592 204 525 q 75 757 75 660 q 140 922 75 854 q 303 989 204 989 q 466 922 401 989 q 531 757 531 854 q 466 592 531 660 m 254 0 l 819 972 l 890 972 l 324 0 l 254 0 m 719 90 q 743 64 719 90 q 840 39 767 39 q 960 90 914 39 q 1007 215 1007 140 q 960 341 1007 290 q 840 392 914 392 q 719 341 767 392 q 672 215 672 290 q 719 90 672 140 m 840 -17 q 676 51 742 -17 q 611 215 611 118 q 676 380 611 313 q 840 447 742 447 q 1003 380 938 447 q 1068 215 1068 313 q 1003 51 1068 118 q 840 -17 938 -17 z "},"&":{"ha":978,"x_min":71,"x_max":944,"o":"m 689 911 l 689 836 q 461 926 589 926 q 313 881 368 926 q 258 757 258 835 q 286 655 258 701 q 371 553 314 608 l 731 206 q 825 517 819 332 l 893 517 q 778 160 885 304 l 944 0 l 850 0 l 736 110 q 421 -17 607 -17 q 175 65 279 -17 q 71 292 71 147 q 131 471 71 400 q 264 572 192 542 q 189 758 189 657 q 264 925 189 861 q 451 989 339 989 q 689 911 592 989 m 422 46 q 689 156 579 46 l 308 522 q 190 440 240 501 q 140 292 140 379 q 221 113 140 181 q 422 46 301 46 z "},"'":{"ha":229,"x_min":82,"x_max":147,"o":"m 82 640 l 82 972 l 147 972 l 147 640 l 82 640 z "},"(":{"ha":490,"x_min":140,"x_max":424,"o":"m 424 -286 l 349 -286 q 140 347 140 -26 q 349 981 140 717 l 424 981 q 206 347 206 696 q 424 -286 206 -7 z "},")":{"ha":490,"x_min":67,"x_max":350,"o":"m 142 -286 l 67 -286 q 285 347 285 -7 q 67 981 285 696 l 142 981 q 350 347 350 713 q 142 -286 350 -24 z "},"*":{"ha":592,"x_min":69,"x_max":522,"o":"m 268 482 l 271 683 l 99 578 l 69 628 l 244 728 l 69 825 l 99 876 l 271 771 l 268 972 l 325 972 l 322 771 l 494 876 l 522 825 l 347 728 l 522 628 l 494 578 l 322 683 l 325 482 l 268 482 z "},"+":{"ha":846,"x_min":97,"x_max":749,"o":"m 392 125 l 392 418 l 97 418 l 97 481 l 392 481 l 392 775 l 454 775 l 454 481 l 749 481 l 749 418 l 454 418 l 454 125 l 392 125 z "},",":{"ha":311,"x_min":31,"x_max":219,"o":"m 31 -211 l 136 124 l 219 124 l 89 -211 l 31 -211 z "},"-":{"ha":663,"x_min":143,"x_max":519,"o":"m 143 343 l 143 406 l 519 406 l 519 343 l 143 343 z "},".":{"ha":311,"x_min":100,"x_max":211,"o":"m 117 12 q 108 20 117 12 q 100 51 100 28 q 117 91 100 75 q 156 107 133 107 q 194 91 178 107 q 211 51 211 75 q 194 12 211 28 q 156 -4 178 -4 q 117 12 133 -4 z "},"/":{"ha":696,"x_min":19,"x_max":675,"o":"m 19 -194 l 604 1100 l 675 1100 l 90 -194 l 19 -194 z "},":":{"ha":311,"x_min":100,"x_max":211,"o":"m 117 550 q 108 558 117 550 q 100 589 100 567 q 117 628 100 611 q 156 644 133 644 q 194 628 178 644 q 211 589 211 611 q 194 550 211 567 q 156 533 178 533 q 117 550 133 533 m 117 12 q 108 20 117 12 q 100 51 100 28 q 117 91 100 75 q 156 107 133 107 q 194 91 178 107 q 211 51 211 75 q 194 12 211 28 q 156 -4 178 -4 q 117 12 133 -4 z "},";":{"ha":313,"x_min":31,"x_max":219,"o":"m 31 -211 l 136 124 l 219 124 l 89 -211 l 31 -211 m 122 550 q 114 558 122 550 q 106 589 106 567 q 122 628 106 611 q 161 644 139 644 q 200 628 183 644 q 217 589 217 611 q 200 550 217 567 q 161 533 183 533 q 122 550 139 533 z "},"<":{"ha":846,"x_min":97,"x_max":749,"o":"m 749 131 l 97 414 l 97 478 l 749 760 l 749 693 l 175 444 l 749 200 l 749 131 z "},"=":{"ha":846,"x_min":97,"x_max":749,"o":"m 97 260 l 97 321 l 749 321 l 749 260 l 97 260 m 97 576 l 97 638 l 749 638 l 749 576 l 97 576 z "},">":{"ha":846,"x_min":97,"x_max":749,"o":"m 97 131 l 97 200 l 671 444 l 97 693 l 97 760 l 749 478 l 749 414 l 97 131 z "},"?":{"ha":650,"x_min":43,"x_max":578,"o":"m 254 290 l 254 489 q 431 574 354 511 q 508 722 508 636 q 444 865 508 810 q 281 919 379 919 q 43 836 156 919 l 43 904 q 288 982 143 982 q 493 910 408 982 q 578 725 578 839 q 504 555 578 625 q 319 451 431 485 l 319 290 l 254 290 m 251 12 q 243 20 251 12 q 235 51 235 28 q 251 91 235 75 q 290 107 267 107 q 330 91 314 107 q 346 51 346 75 q 330 12 346 28 q 290 -4 314 -4 q 251 12 267 -4 z "},"@":{"ha":1343,"x_min":75,"x_max":1268,"o":"m 674 -225 q 249 -51 424 -225 q 75 382 75 124 q 250 814 75 639 q 674 989 425 989 q 1098 824 928 989 q 1268 418 1268 658 q 1206 185 1268 276 q 1038 93 1143 93 q 932 126 972 93 q 876 207 892 160 q 785 127 846 163 q 650 92 725 92 q 452 177 529 92 q 375 381 375 263 q 452 584 375 499 q 650 669 529 669 q 867 563 782 669 l 867 649 l 933 649 l 933 276 q 965 167 933 204 q 1051 129 997 129 q 1183 210 1132 129 q 1233 419 1233 292 q 1166 684 1233 563 q 969 881 1099 806 q 674 956 839 956 q 271 788 432 956 q 110 382 110 621 q 269 -25 110 142 q 674 -192 429 -192 q 957 -125 828 -192 l 957 -160 q 674 -225 831 -225 m 665 156 q 781 190 726 156 q 867 275 836 224 l 867 486 q 781 572 836 538 q 665 606 726 606 q 509 540 572 606 q 446 381 446 475 q 509 221 446 286 q 665 156 572 156 z "},"A":{"ha":1033,"x_min":46,"x_max":989,"o":"m 46 0 l 486 978 l 550 978 l 989 0 l 917 0 l 789 283 l 246 283 l 118 0 l 46 0 m 271 344 l 764 344 l 518 888 l 271 344 z "},"B":{"ha":1000,"x_min":144,"x_max":915,"o":"m 144 0 l 144 972 l 554 972 q 756 910 683 972 q 828 738 828 847 q 694 529 828 581 q 857 445 799 514 q 915 269 915 376 q 832 74 915 147 q 601 0 749 0 l 144 0 m 214 64 l 590 64 q 775 119 710 64 q 840 276 840 175 q 775 433 840 378 q 590 488 710 488 l 214 488 l 214 64 m 214 549 l 546 549 q 704 595 649 549 q 760 728 760 642 q 704 861 760 814 q 546 908 649 908 l 214 908 l 214 549 z "},"C":{"ha":963,"x_min":103,"x_max":893,"o":"m 593 -17 q 244 126 385 -17 q 103 486 103 268 q 244 847 103 704 q 593 989 385 989 q 871 913 753 989 l 871 839 q 594 922 742 922 q 295 798 417 922 q 174 486 174 674 q 296 174 174 299 q 596 49 418 49 q 893 150 765 49 l 893 74 q 593 -17 771 -17 z "},"D":{"ha":1076,"x_min":144,"x_max":972,"o":"m 144 0 l 144 972 l 449 972 q 827 838 682 972 q 972 486 972 703 q 827 135 972 269 q 449 0 682 0 l 144 0 m 214 64 l 438 64 q 777 179 653 64 q 901 486 901 294 q 777 793 901 678 q 438 908 653 908 l 214 908 l 214 64 z "},"E":{"ha":885,"x_min":144,"x_max":819,"o":"m 144 0 l 144 972 l 797 972 l 797 908 l 214 908 l 214 556 l 696 556 l 696 490 l 214 490 l 214 64 l 819 64 l 819 0 l 144 0 z "},"F":{"ha":858,"x_min":144,"x_max":790,"o":"m 144 0 l 144 972 l 790 972 l 790 908 l 214 908 l 214 543 l 690 543 l 690 478 l 214 478 l 214 0 l 144 0 z "},"G":{"ha":1086,"x_min":103,"x_max":964,"o":"m 592 -17 q 244 126 385 -17 q 103 486 103 268 q 243 847 103 704 q 592 989 383 989 q 908 889 779 989 l 908 815 q 597 922 772 922 q 295 799 417 922 q 174 485 174 675 q 294 172 174 296 q 592 49 415 49 q 894 163 786 49 l 894 557 l 964 557 l 964 136 q 592 -17 824 -17 z "},"H":{"ha":1056,"x_min":144,"x_max":910,"o":"m 144 0 l 144 972 l 214 972 l 214 556 l 840 556 l 840 972 l 910 972 l 910 0 l 840 0 l 840 490 l 214 490 l 214 0 l 144 0 z "},"I":{"ha":376,"x_min":154,"x_max":224,"o":"m 154 0 l 154 972 l 224 972 l 224 0 l 154 0 z "},"J":{"ha":700,"x_min":51,"x_max":568,"o":"m 271 -17 q 51 49 142 -17 l 51 124 q 260 49 138 49 q 499 300 499 49 l 499 972 l 568 972 l 568 289 q 490 60 568 136 q 271 -17 413 -17 z "},"K":{"ha":890,"x_min":144,"x_max":876,"o":"m 144 0 l 144 972 l 214 972 l 214 544 l 703 972 l 799 972 l 292 526 l 876 0 l 772 0 l 214 504 l 214 0 l 144 0 z "},"L":{"ha":824,"x_min":144,"x_max":776,"o":"m 144 0 l 144 972 l 214 972 l 214 64 l 776 64 l 776 0 l 144 0 z "},"M":{"ha":1176,"x_min":144,"x_max":1031,"o":"m 144 0 l 144 972 l 215 972 l 589 481 l 963 972 l 1031 972 l 1031 0 l 961 0 l 961 865 l 611 404 l 567 404 l 214 865 l 214 0 l 144 0 z "},"N":{"ha":1076,"x_min":144,"x_max":931,"o":"m 144 0 l 144 972 l 206 972 l 861 121 l 861 972 l 931 972 l 931 0 l 871 0 l 214 853 l 214 0 l 144 0 z "},"O":{"ha":1175,"x_min":103,"x_max":1071,"o":"m 294 174 q 354 111 294 174 q 588 49 414 49 q 881 174 761 49 q 1000 486 1000 299 q 881 798 1000 674 q 588 922 761 922 q 293 798 413 922 q 174 486 174 674 q 294 174 174 299 m 588 -17 q 241 126 379 -17 q 103 486 103 269 q 242 845 103 701 q 588 989 381 989 q 932 845 793 989 q 1071 486 1071 701 q 932 127 1071 271 q 588 -17 793 -17 z "},"P":{"ha":924,"x_min":144,"x_max":851,"o":"m 144 0 l 144 972 l 550 972 q 772 901 693 972 q 851 710 851 829 q 772 518 851 590 q 550 446 693 446 l 214 446 l 214 0 l 144 0 m 214 510 l 543 510 q 719 562 657 510 q 782 710 782 614 q 719 856 782 804 q 543 908 657 908 l 214 908 l 214 510 z "},"Q":{"ha":1175,"x_min":103,"x_max":1071,"o":"m 588 -17 q 241 126 379 -17 q 103 486 103 269 q 242 845 103 701 q 588 989 381 989 q 932 845 793 989 q 1071 486 1071 701 q 976 181 1071 311 q 731 4 882 50 q 925 -97 824 -97 q 1040 -64 994 -97 l 1040 -135 q 921 -162 988 -162 q 785 -124 849 -162 q 651 -11 722 -85 q 588 -17 624 -17 m 294 174 q 354 111 294 174 q 588 49 414 49 q 881 174 761 49 q 1000 486 1000 299 q 881 798 1000 674 q 588 922 761 922 q 293 798 413 922 q 174 486 174 674 q 294 174 174 299 z "},"R":{"ha":1022,"x_min":144,"x_max":951,"o":"m 144 0 l 144 972 l 576 972 q 795 902 717 972 q 874 715 874 832 q 811 542 874 610 q 633 460 749 474 l 951 0 l 871 0 l 554 454 l 214 454 l 214 0 l 144 0 m 214 518 l 571 518 q 743 569 682 518 q 804 714 804 619 q 743 858 804 807 q 571 908 682 908 l 214 908 l 214 518 z "},"S":{"ha":867,"x_min":67,"x_max":774,"o":"m 422 -17 q 218 14 314 -17 q 67 88 122 44 l 67 167 q 216 84 121 119 q 417 49 311 49 q 622 105 542 49 q 703 256 703 161 q 694 311 703 286 q 674 354 685 336 q 637 390 663 372 q 594 417 611 407 q 538 440 578 426 q 479 458 499 453 q 413 478 460 464 q 285 519 331 501 q 190 567 239 536 q 118 642 140 597 q 96 747 96 686 q 181 920 96 851 q 419 989 265 989 q 715 907 588 989 l 715 833 q 422 922 585 922 q 230 872 294 922 q 165 746 165 821 q 174 697 165 719 q 193 658 183 674 q 229 625 203 642 q 271 599 256 608 q 326 577 286 590 q 384 558 367 564 q 451 539 401 553 q 546 510 510 522 q 631 473 582 497 q 706 422 679 449 q 753 351 733 394 q 774 256 774 308 q 672 56 774 128 q 422 -17 569 -17 z "},"T":{"ha":863,"x_min":50,"x_max":814,"o":"m 397 0 l 397 908 l 50 908 l 50 972 l 814 972 l 814 908 l 467 908 l 467 0 l 397 0 z "},"U":{"ha":1038,"x_min":129,"x_max":908,"o":"m 519 -17 q 236 97 343 -17 q 129 415 129 210 l 129 972 l 199 972 l 199 415 q 285 145 199 242 q 519 49 371 49 q 753 144 668 49 q 839 415 839 240 l 839 972 l 908 972 l 908 415 q 801 97 908 210 q 519 -17 693 -17 z "},"V":{"ha":1040,"x_min":53,"x_max":988,"o":"m 488 -6 l 53 972 l 129 972 l 521 92 l 911 972 l 988 972 l 551 -6 l 488 -6 z "},"W":{"ha":1449,"x_min":61,"x_max":1386,"o":"m 400 -6 l 61 972 l 139 972 l 433 110 l 694 975 l 753 975 l 1017 110 l 1310 972 l 1386 972 l 1049 -6 l 986 -6 l 725 850 l 460 -6 l 400 -6 z "},"X":{"ha":971,"x_min":51,"x_max":924,"o":"m 51 0 l 443 528 l 114 972 l 197 972 l 488 585 l 776 972 l 860 972 l 528 529 l 924 0 l 839 0 l 486 472 l 132 0 l 51 0 z "},"Y":{"ha":901,"x_min":36,"x_max":863,"o":"m 414 0 l 414 450 l 36 972 l 119 972 l 450 515 l 783 972 l 863 972 l 483 451 l 483 0 l 414 0 z "},"Z":{"ha":888,"x_min":74,"x_max":814,"o":"m 74 0 l 74 50 l 700 908 l 111 908 l 111 972 l 792 972 l 792 922 l 172 64 l 814 64 l 814 0 l 74 0 z "},"[":{"ha":518,"x_min":138,"x_max":463,"o":"m 138 -286 l 138 981 l 463 981 l 463 921 l 203 921 l 203 -226 l 463 -226 l 463 -286 l 138 -286 z "},"\\":{"ha":694,"x_min":22,"x_max":679,"o":"m 607 -194 l 22 1100 l 94 1100 l 679 -194 l 607 -194 z "},"]":{"ha":518,"x_min":56,"x_max":379,"o":"m 379 981 l 379 -286 l 56 -286 l 56 -226 l 314 -226 l 314 921 l 56 921 l 56 981 l 379 981 z "},"^":{"ha":700,"x_min":82,"x_max":617,"o":"m 82 485 l 317 985 l 382 985 l 617 485 l 551 485 l 350 918 l 151 485 l 82 485 z "},"_":{"ha":847,"x_min":11,"x_max":836,"o":"m 11 -167 l 11 -114 l 836 -114 l 836 -167 l 11 -167 z "},"`":{"ha":725,"x_min":242,"x_max":468,"o":"m 396 801 l 242 982 l 335 982 l 468 801 l 396 801 z "},"a":{"ha":819,"x_min":67,"x_max":776,"o":"m 342 46 q 490 84 422 46 q 599 175 558 122 l 599 283 q 360 358 488 358 q 197 316 256 358 q 138 203 138 274 q 197 85 138 124 q 342 46 256 46 m 322 -17 q 142 41 218 -17 q 67 201 67 99 q 145 358 67 299 q 342 418 224 418 q 599 347 482 418 l 599 432 q 365 618 599 618 q 142 547 243 618 l 142 615 q 378 681 242 681 q 587 620 507 681 q 667 438 667 560 l 667 146 q 686 78 667 103 q 738 53 706 53 q 776 61 760 53 l 776 6 q 721 -6 758 -6 q 642 23 675 -6 q 606 108 610 51 q 322 -17 493 -17 z "},"b":{"ha":876,"x_min":124,"x_max":801,"o":"m 464 -17 q 192 115 288 -17 l 192 0 l 124 0 l 124 972 l 192 972 l 192 547 q 464 681 289 681 q 707 577 613 681 q 801 331 801 474 q 707 86 801 189 q 464 -17 613 -17 m 450 46 q 651 128 571 46 q 732 331 732 210 q 651 535 732 453 q 450 618 571 618 q 297 572 367 618 q 192 454 226 525 l 192 208 q 296 91 225 136 q 450 46 367 46 z "},"c":{"ha":728,"x_min":75,"x_max":639,"o":"m 425 -17 q 174 85 274 -17 q 75 332 75 186 q 174 579 75 478 q 426 681 274 681 q 626 629 539 681 l 626 564 q 435 618 533 618 q 228 535 311 618 q 144 331 144 453 q 228 127 144 208 q 435 46 311 46 q 639 108 550 46 l 639 42 q 425 -17 550 -17 z "},"d":{"ha":878,"x_min":75,"x_max":753,"o":"m 413 -17 q 169 86 264 -17 q 75 331 75 189 q 169 577 75 474 q 413 681 264 681 q 685 547 588 681 l 685 972 l 753 972 l 753 0 l 685 0 l 685 115 q 413 -17 589 -17 m 426 46 q 581 91 510 46 q 685 208 651 136 l 685 454 q 580 572 650 525 q 426 618 510 618 q 225 535 306 618 q 144 331 144 453 q 225 128 144 210 q 426 46 306 46 z "},"e":{"ha":789,"x_min":75,"x_max":713,"o":"m 438 -17 q 178 81 282 -17 q 75 331 75 179 q 167 581 75 481 q 406 681 260 681 q 526 658 472 681 q 615 601 581 636 q 672 519 649 565 q 703 430 694 474 q 713 343 713 386 l 713 321 l 143 321 q 231 122 147 199 q 447 46 315 46 q 661 108 571 46 l 661 43 q 438 -17 582 -17 m 144 379 l 644 379 q 631 456 644 417 q 591 533 618 496 q 515 594 564 571 q 404 618 467 618 q 220 545 290 618 q 144 379 150 472 z "},"f":{"ha":522,"x_min":39,"x_max":483,"o":"m 243 0 l 175 0 l 175 603 l 39 603 l 39 664 l 175 664 l 175 793 q 221 931 175 881 q 353 982 267 982 q 483 954 429 982 l 483 890 q 367 919 428 919 q 275 883 307 919 q 243 778 243 846 l 243 664 l 483 664 l 483 603 l 243 603 l 243 0 z "},"g":{"ha":876,"x_min":75,"x_max":753,"o":"m 685 664 l 753 664 l 753 31 q 653 -202 753 -121 q 400 -283 554 -283 q 144 -221 258 -283 l 144 -153 q 396 -221 257 -221 q 606 -158 526 -221 q 685 31 685 -96 l 685 119 q 414 -10 590 -10 q 170 92 265 -10 q 75 336 75 193 q 170 579 75 478 q 414 681 265 681 q 685 550 590 681 l 685 664 m 685 213 l 685 457 q 582 574 651 529 q 428 618 513 618 q 225 537 306 618 q 144 336 144 456 q 225 133 144 214 q 428 53 306 53 q 582 97 513 53 q 685 213 651 140 z "},"h":{"ha":840,"x_min":124,"x_max":729,"o":"m 192 0 l 124 0 l 124 972 l 192 972 l 192 550 q 309 642 236 604 q 472 681 382 681 q 665 608 600 681 q 729 404 729 536 l 729 0 l 661 0 l 661 390 q 642 507 661 460 q 588 576 622 554 q 522 608 554 599 q 451 617 489 617 q 301 571 375 617 q 192 465 228 525 l 192 0 z "},"i":{"ha":354,"x_min":121,"x_max":232,"o":"m 143 0 l 143 664 l 211 664 l 211 0 l 143 0 m 137 858 q 129 867 137 858 q 121 897 121 875 q 137 936 121 919 q 176 953 153 953 q 216 936 200 953 q 232 897 232 919 q 216 858 232 875 q 176 842 200 842 q 137 858 153 842 z "},"j":{"ha":354,"x_min":-76,"x_max":232,"o":"m 32 -283 q -76 -258 -35 -283 l -76 -194 q 19 -221 -31 -221 q 143 -79 143 -221 l 143 664 l 211 664 l 211 -90 q 160 -238 211 -193 q 32 -283 110 -283 m 137 858 q 129 867 137 858 q 121 897 121 875 q 137 936 121 919 q 176 953 153 953 q 216 936 200 953 q 232 897 232 919 q 216 858 232 875 q 176 842 200 842 q 137 858 153 842 z "},"k":{"ha":721,"x_min":124,"x_max":685,"o":"m 124 0 l 124 972 l 192 972 l 192 385 l 536 664 l 635 664 l 264 364 l 685 0 l 583 0 l 192 338 l 192 0 l 124 0 z "},"l":{"ha":390,"x_min":124,"x_max":358,"o":"m 268 -17 q 166 19 208 -17 q 124 139 124 54 l 124 972 l 192 972 l 192 154 q 289 49 192 49 q 358 68 326 49 l 358 3 q 268 -17 324 -17 z "},"m":{"ha":1269,"x_min":124,"x_max":1158,"o":"m 124 0 l 124 664 l 192 664 l 192 556 q 292 645 226 610 q 442 681 357 681 q 657 540 610 681 q 922 681 753 681 q 1097 612 1035 681 q 1158 414 1158 543 l 1158 0 l 1090 0 l 1090 400 q 1072 515 1090 468 q 1022 581 1053 561 q 963 609 990 601 q 906 617 936 617 q 769 572 835 617 q 672 461 704 526 q 675 392 675 408 l 675 0 l 607 0 l 607 401 q 424 617 607 617 q 292 574 356 617 q 192 468 228 532 l 192 0 l 124 0 z "},"n":{"ha":840,"x_min":124,"x_max":729,"o":"m 192 0 l 124 0 l 124 664 l 192 664 l 192 550 q 309 642 236 604 q 472 681 382 681 q 665 608 600 681 q 729 404 729 536 l 729 0 l 661 0 l 661 390 q 642 507 661 460 q 588 576 622 554 q 522 608 554 599 q 451 617 489 617 q 301 571 375 617 q 192 465 228 525 l 192 0 z "},"o":{"ha":857,"x_min":75,"x_max":782,"o":"m 226 128 q 266 87 226 128 q 428 46 307 46 q 631 128 549 46 q 713 331 713 211 q 631 535 713 453 q 428 618 549 618 q 226 535 307 618 q 144 331 144 453 q 226 128 144 210 m 428 -17 q 174 85 272 -17 q 75 331 75 188 q 174 577 75 474 q 428 681 272 681 q 683 577 585 681 q 782 331 782 474 q 683 85 782 188 q 428 -17 585 -17 z "},"p":{"ha":876,"x_min":124,"x_max":801,"o":"m 464 681 q 707 578 613 681 q 801 332 801 475 q 707 86 801 189 q 464 -17 613 -17 q 192 117 289 -17 l 192 -278 l 124 -278 l 124 664 l 192 664 l 192 549 q 464 681 288 681 m 450 618 q 296 573 367 618 q 192 456 225 528 l 192 210 q 296 92 225 139 q 450 46 367 46 q 651 128 571 46 q 732 332 732 211 q 651 535 732 453 q 450 618 571 618 z "},"q":{"ha":878,"x_min":75,"x_max":753,"o":"m 413 681 q 685 549 589 681 l 685 664 l 753 664 l 753 -278 l 685 -278 l 685 117 q 413 -17 588 -17 q 169 86 264 -17 q 75 332 75 189 q 169 578 75 475 q 413 681 264 681 m 426 618 q 225 535 306 618 q 144 332 144 453 q 225 128 144 211 q 426 46 306 46 q 581 92 510 46 q 685 210 651 139 l 685 456 q 581 573 651 528 q 426 618 510 618 z "},"r":{"ha":483,"x_min":124,"x_max":460,"o":"m 124 0 l 124 664 l 192 664 l 192 526 q 301 635 228 589 q 460 681 374 681 l 460 611 q 294 558 365 611 q 192 436 222 506 l 192 0 l 124 0 z "},"s":{"ha":696,"x_min":65,"x_max":617,"o":"m 340 -17 q 182 4 257 -17 q 65 54 107 25 l 65 126 q 182 71 108 96 q 339 46 256 46 q 491 80 435 46 q 547 174 547 114 q 494 255 547 228 q 322 311 440 282 q 231 338 268 325 q 158 372 194 350 q 104 425 122 393 q 86 500 86 457 q 153 632 86 583 q 343 681 219 681 q 583 619 489 681 l 583 550 q 347 618 475 618 q 202 585 250 618 q 154 500 154 553 q 167 456 154 475 q 194 424 179 436 q 242 401 208 413 q 294 384 276 389 q 357 368 313 379 q 435 348 407 356 q 502 324 463 340 q 563 289 542 307 q 601 240 585 271 q 617 172 617 210 q 538 34 617 85 q 340 -17 460 -17 z "},"t":{"ha":588,"x_min":39,"x_max":519,"o":"m 381 -17 q 249 35 292 -17 q 207 176 207 86 l 207 603 l 39 603 l 39 664 l 207 664 l 207 876 l 275 876 l 275 664 l 519 664 l 519 603 l 275 603 l 275 194 q 303 81 275 114 q 399 49 332 49 q 510 79 456 49 l 510 14 q 381 -17 467 -17 z "},"u":{"ha":843,"x_min":113,"x_max":718,"o":"m 650 664 l 718 664 l 718 0 l 650 0 l 650 114 q 533 22 606 60 q 369 -17 460 -17 q 177 56 242 -17 q 113 260 113 128 l 113 664 l 181 664 l 181 274 q 390 47 181 47 q 539 93 465 47 q 650 199 613 139 l 650 664 z "},"v":{"ha":774,"x_min":43,"x_max":728,"o":"m 354 -6 l 43 664 l 121 664 l 389 86 l 654 664 l 728 664 l 418 -6 l 354 -6 z "},"w":{"ha":1131,"x_min":60,"x_max":1069,"o":"m 303 -6 l 60 664 l 131 664 l 336 100 l 536 667 l 594 667 l 796 100 l 1000 664 l 1069 664 l 826 -6 l 768 -6 l 563 561 l 363 -6 l 303 -6 z "},"x":{"ha":753,"x_min":50,"x_max":711,"o":"m 50 0 l 340 353 l 88 664 l 171 664 l 382 406 l 593 664 l 674 664 l 422 356 l 711 0 l 626 0 l 379 303 l 131 0 l 50 0 z "},"y":{"ha":756,"x_min":36,"x_max":707,"o":"m 143 -283 q 46 -262 76 -283 l 46 -199 q 135 -221 85 -221 q 244 -167 200 -221 q 343 13 288 -114 l 36 664 l 113 664 l 376 94 l 632 664 l 707 664 l 372 -75 q 272 -231 325 -179 q 143 -283 219 -283 z "},"z":{"ha":686,"x_min":53,"x_max":632,"o":"m 53 0 l 53 46 l 511 603 l 86 603 l 86 664 l 610 664 l 610 615 l 153 61 l 632 61 l 632 0 l 53 0 z "},"{":{"ha":485,"x_min":76,"x_max":431,"o":"m 158 347 q 231 275 213 324 q 249 142 249 226 l 249 -103 q 374 -226 249 -226 l 431 -226 l 431 -286 l 363 -286 q 231 -240 278 -286 q 183 -106 183 -193 l 183 125 q 181 193 183 168 q 169 250 179 218 q 137 299 160 282 q 76 319 114 315 l 76 375 q 137 396 114 379 q 169 444 160 413 q 181 500 179 475 q 183 568 183 525 l 183 800 q 231 934 183 888 q 363 981 278 981 l 431 981 l 431 921 l 374 921 q 249 797 249 921 l 249 553 q 231 419 249 468 q 158 347 213 371 z "},"|":{"ha":413,"x_min":174,"x_max":238,"o":"m 174 -154 l 174 1056 l 238 1056 l 238 -154 l 174 -154 z "},"}":{"ha":485,"x_min":54,"x_max":408,"o":"m 326 347 q 254 419 272 371 q 236 553 236 468 l 236 797 q 111 921 236 921 l 54 921 l 54 981 l 124 981 q 255 933 208 981 q 301 800 301 886 l 301 568 q 303 500 301 525 q 315 444 306 475 q 348 396 325 413 q 408 375 371 379 l 408 319 q 348 299 371 315 q 315 250 325 282 q 303 193 306 218 q 301 125 301 168 l 301 -106 q 255 -239 301 -192 q 124 -286 208 -286 l 54 -286 l 54 -226 l 111 -226 q 236 -103 236 -226 l 236 142 q 254 275 236 226 q 326 347 272 324 z "},"~":{"ha":789,"x_min":97,"x_max":692,"o":"m 550 292 q 394 326 493 292 q 239 360 294 360 q 97 300 149 360 l 97 369 q 239 422 136 422 q 394 388 294 422 q 550 354 494 354 q 692 413 639 354 l 692 343 q 550 292 654 292 z "}," ":{"ha":371,"x_min":0,"x_max":0,"o":""},"¡":{"ha":371,"x_min":129,"x_max":240,"o":"m 228 -278 l 143 -278 l 154 372 l 217 372 l 228 -278 m 145 573 q 137 581 145 573 q 129 613 129 589 q 145 652 129 636 q 185 668 161 668 q 224 652 208 668 q 240 613 240 636 q 224 573 240 589 q 185 557 208 557 q 145 573 161 557 z "},"¢":{"ha":728,"x_min":75,"x_max":639,"o":"m 394 679 l 394 826 l 457 826 l 457 679 q 626 629 547 674 l 626 564 q 435 618 533 618 q 228 535 311 618 q 144 331 144 453 q 228 127 144 208 q 435 46 311 46 q 639 108 550 46 l 639 42 q 457 -15 564 -8 l 457 -162 l 394 -162 l 394 -15 q 165 94 254 -4 q 75 332 75 193 q 164 568 75 469 q 394 679 253 667 z "},"£":{"ha":804,"x_min":90,"x_max":725,"o":"m 90 0 l 90 64 l 124 64 q 188 174 188 64 l 188 421 l 90 421 l 90 485 l 188 485 l 188 681 q 268 908 188 828 q 494 989 349 989 q 721 925 624 989 l 721 854 q 501 922 633 922 q 319 858 382 922 q 256 672 256 794 l 256 485 l 661 485 l 661 421 l 256 421 l 256 138 q 224 64 256 85 l 725 64 l 725 0 l 90 0 z "},"¤":{"ha":775,"x_min":81,"x_max":693,"o":"m 124 183 l 81 222 l 169 313 q 110 488 110 390 q 169 661 110 583 l 81 751 l 124 792 l 213 703 q 386 765 286 765 q 560 703 489 765 l 650 792 l 693 751 l 601 661 q 663 488 663 588 q 603 313 663 388 l 693 222 l 650 183 l 560 271 q 386 210 488 210 q 213 272 286 210 l 124 183 m 233 333 q 265 301 233 333 q 386 269 296 269 q 539 333 476 269 q 601 488 601 397 q 539 642 601 578 q 386 706 476 706 q 233 642 296 706 q 171 488 171 578 q 233 333 171 397 z "},"¥":{"ha":850,"x_min":36,"x_max":813,"o":"m 389 0 l 389 206 l 92 206 l 92 269 l 389 269 l 389 424 l 92 424 l 92 488 l 363 488 l 36 972 l 117 972 l 425 514 l 733 972 l 813 972 l 485 488 l 758 488 l 758 424 l 458 424 l 458 269 l 758 269 l 758 206 l 458 206 l 458 0 l 389 0 z "},"¦":{"ha":413,"x_min":174,"x_max":238,"o":"m 174 -154 l 174 336 l 238 336 l 238 -154 l 174 -154 m 174 565 l 174 1056 l 238 1056 l 238 565 l 174 565 z "},"§":{"ha":892,"x_min":96,"x_max":796,"o":"m 629 154 q 750 -11 750 92 q 670 -156 750 -99 q 446 -212 590 -212 q 149 -133 279 -212 l 149 -61 q 450 -146 288 -146 q 618 -109 557 -146 q 679 -8 679 -72 q 675 22 679 8 q 660 49 671 36 q 641 72 650 63 q 612 92 632 82 q 579 109 592 103 q 539 126 567 115 q 497 141 511 136 q 449 156 482 146 q 400 172 415 167 q 172 279 247 224 q 96 425 96 335 q 263 622 96 565 q 142 788 142 685 q 222 932 142 875 q 446 989 301 989 q 743 910 613 989 l 743 838 q 442 922 604 922 q 274 885 335 922 q 213 785 213 849 q 217 754 213 768 q 231 727 221 740 q 251 704 242 714 q 280 684 260 694 q 313 667 300 674 q 353 651 325 661 q 395 635 381 640 q 443 620 410 631 q 492 604 476 610 q 720 497 644 553 q 796 351 796 442 q 629 154 796 211 m 443 225 q 558 188 482 210 q 681 245 633 203 q 728 346 728 288 q 706 419 728 386 q 638 476 683 451 q 553 516 592 501 q 449 551 514 531 q 333 589 410 567 q 211 531 258 574 q 164 431 164 489 q 186 358 164 390 q 254 300 208 325 q 339 260 300 275 q 443 225 378 246 z "},"¨":{"ha":725,"x_min":179,"x_max":550,"o":"m 194 858 q 187 866 194 858 q 179 896 179 874 q 194 933 179 918 q 232 949 210 949 q 269 933 254 949 q 285 896 285 918 q 269 858 285 874 q 232 843 254 843 q 194 858 210 843 m 460 858 q 452 866 460 858 q 444 896 444 874 q 460 933 444 918 q 497 949 475 949 q 535 933 519 949 q 550 896 550 918 q 535 858 550 874 q 497 843 519 843 q 460 858 475 843 z "},"©":{"ha":1213,"x_min":103,"x_max":1108,"o":"m 636 219 q 447 296 524 219 q 371 486 371 372 q 447 676 371 600 q 636 753 524 753 q 776 717 715 753 l 776 656 q 636 696 717 696 q 492 637 550 696 q 435 486 435 578 q 493 335 435 394 q 639 276 551 276 q 790 328 726 276 l 790 265 q 636 219 725 219 m 960 131 q 886 57 960 131 q 604 -17 813 -17 q 249 131 396 -17 q 103 486 103 278 q 250 841 103 693 q 606 989 397 989 q 962 842 815 989 q 1108 485 1108 694 q 960 131 1108 278 m 273 153 q 341 85 273 153 q 604 17 408 17 q 938 153 800 17 q 1075 485 1075 290 q 938 818 1075 681 q 606 956 801 956 q 274 818 410 956 q 138 485 138 681 q 273 153 138 289 z "},"ª":{"ha":731,"x_min":100,"x_max":640,"o":"m 613 503 q 640 508 631 503 l 640 457 q 599 450 626 450 q 536 472 563 450 q 506 535 510 493 q 294 440 419 440 q 157 486 214 440 q 100 608 100 532 q 162 731 100 688 q 308 775 224 775 q 500 722 410 775 l 500 782 q 325 925 500 925 q 157 872 228 925 l 157 931 q 336 979 232 979 q 497 932 435 979 q 560 790 560 885 l 560 567 q 613 503 560 503 m 500 593 l 500 671 q 322 724 422 724 q 204 694 247 724 q 161 611 161 664 q 205 524 161 554 q 310 494 249 494 q 420 524 369 494 q 500 593 471 554 z "},"«":{"ha":746,"x_min":71,"x_max":678,"o":"m 288 58 l 71 314 l 71 351 l 288 606 l 367 606 l 135 331 l 367 58 l 288 58 m 597 58 l 382 314 l 382 351 l 597 606 l 678 606 l 446 331 l 678 58 l 597 58 z "},"¬":{"ha":772,"x_min":97,"x_max":675,"o":"m 613 217 l 613 461 l 97 461 l 97 522 l 675 522 l 675 217 l 613 217 z "},"­":{"ha":663,"x_min":143,"x_max":519,"o":"m 143 343 l 143 406 l 519 406 l 519 343 l 143 343 z "},"®":{"ha":1213,"x_min":103,"x_max":1108,"o":"m 422 233 l 422 750 l 658 750 q 779 710 736 750 q 822 607 822 671 q 792 517 822 553 q 703 469 761 481 l 871 233 l 800 233 l 638 463 l 483 463 l 483 233 l 422 233 m 483 515 l 656 515 q 760 606 760 515 q 733 674 760 650 q 656 697 706 697 l 483 697 l 483 515 m 960 131 q 886 57 960 131 q 604 -17 813 -17 q 249 131 396 -17 q 103 486 103 278 q 250 841 103 693 q 606 989 397 989 q 962 842 815 989 q 1108 485 1108 694 q 960 131 1108 278 m 273 153 q 341 85 273 153 q 604 17 408 17 q 938 153 800 17 q 1075 485 1075 290 q 938 818 1075 681 q 606 956 801 956 q 274 818 410 956 q 138 485 138 681 q 273 153 138 289 z "},"¯":{"ha":721,"x_min":197,"x_max":521,"o":"m 197 867 l 197 922 l 521 922 l 521 867 l 197 867 z "},"°":{"ha":610,"x_min":97,"x_max":514,"o":"m 304 932 q 199 888 243 932 q 156 782 156 844 q 199 676 156 719 q 304 632 243 632 q 410 676 367 632 q 454 782 454 719 q 410 888 454 844 q 304 932 367 932 m 304 989 q 452 928 390 989 q 514 782 514 867 q 452 636 514 697 q 304 575 390 575 q 158 636 219 575 q 97 782 97 697 q 158 928 97 867 q 304 989 219 989 z "},"±":{"ha":846,"x_min":97,"x_max":749,"o":"m 392 263 l 392 500 l 97 500 l 97 564 l 392 564 l 392 804 l 454 804 l 454 564 l 749 564 l 749 500 l 454 500 l 454 263 l 392 263 m 97 92 l 97 153 l 749 153 l 749 92 l 97 92 z "},"²":{"ha":496,"x_min":64,"x_max":426,"o":"m 64 447 l 64 494 l 240 660 q 319 745 294 710 q 343 822 343 781 q 312 893 343 867 q 229 919 281 919 q 75 856 143 919 l 75 922 q 235 979 140 979 q 358 938 308 979 q 407 829 407 896 q 379 733 407 778 q 290 629 351 688 l 157 501 l 426 501 l 426 447 l 64 447 z "},"³":{"ha":449,"x_min":36,"x_max":394,"o":"m 193 440 q 36 481 96 440 l 36 540 q 189 496 104 496 q 289 528 246 496 q 332 615 332 561 q 295 697 332 667 q 194 728 258 728 q 132 718 164 728 l 132 761 l 292 918 l 58 918 l 58 972 l 376 972 l 376 926 l 221 774 q 343 730 292 769 q 394 614 394 690 q 338 488 394 536 q 193 440 281 440 z "},"´":{"ha":703,"x_min":265,"x_max":489,"o":"m 265 801 l 399 982 l 489 982 l 338 801 l 265 801 z "},"µ":{"ha":854,"x_min":124,"x_max":729,"o":"m 124 -278 l 124 664 l 192 664 l 192 274 q 401 47 192 47 q 550 93 476 47 q 661 199 624 139 l 661 664 l 729 664 l 729 0 l 661 0 l 661 114 q 544 22 617 60 q 381 -17 471 -17 q 192 54 258 -17 l 192 -278 l 124 -278 z "},"¶":{"ha":704,"x_min":71,"x_max":558,"o":"m 490 0 l 490 451 l 369 451 q 149 522 228 451 q 71 711 71 593 q 149 901 71 831 q 369 972 226 972 l 558 972 l 558 0 l 490 0 z "},"·":{"ha":311,"x_min":100,"x_max":211,"o":"m 117 490 q 108 498 117 490 q 100 529 100 506 q 117 569 100 553 q 156 585 133 585 q 194 569 178 585 q 211 529 211 553 q 194 490 211 506 q 156 474 178 474 q 117 490 133 474 z "},"¸":{"ha":657,"x_min":204,"x_max":390,"o":"m 204 -178 l 331 7 l 390 7 l 288 -178 l 204 -178 z "},"¹":{"ha":326,"x_min":35,"x_max":243,"o":"m 179 447 l 179 906 l 35 819 l 35 883 l 183 972 l 243 972 l 243 447 l 179 447 z "},"º":{"ha":651,"x_min":51,"x_max":600,"o":"m 328 497 q 476 558 417 497 q 536 710 536 619 q 476 860 536 800 q 328 921 417 921 q 178 860 238 921 q 118 710 118 800 q 178 558 118 619 q 328 497 238 497 m 328 440 q 128 519 206 440 q 51 708 51 597 q 128 899 51 819 q 328 979 206 979 q 524 900 449 979 q 600 708 600 821 q 524 519 600 597 q 328 440 449 440 z "},"»":{"ha":747,"x_min":69,"x_max":676,"o":"m 676 314 l 460 58 l 381 58 l 613 332 l 381 606 l 460 606 l 676 351 l 676 314 m 365 314 l 149 58 l 69 58 l 301 332 l 69 606 l 149 606 l 365 351 l 365 314 z "},"¼":{"ha":1017,"x_min":35,"x_max":985,"o":"m 163 0 l 729 972 l 800 972 l 233 0 l 163 0 m 179 447 l 179 906 l 35 819 l 35 883 l 183 972 l 243 972 l 243 447 l 179 447 m 838 0 l 838 142 l 558 142 l 558 189 l 840 525 l 900 525 l 900 194 l 985 194 l 985 142 l 900 142 l 900 0 l 838 0 m 631 194 l 838 194 l 838 442 l 631 194 z "},"½":{"ha":1108,"x_min":35,"x_max":1038,"o":"m 163 0 l 729 972 l 800 972 l 233 0 l 163 0 m 179 447 l 179 906 l 35 819 l 35 883 l 183 972 l 243 972 l 243 447 l 179 447 m 675 0 l 675 47 l 851 213 q 930 298 906 263 q 954 375 954 333 q 923 446 954 419 q 840 472 892 472 q 686 408 754 472 l 686 475 q 846 532 751 532 q 969 490 919 532 q 1018 382 1018 449 q 990 285 1018 331 q 901 182 963 240 l 768 54 l 1038 54 l 1038 0 l 675 0 z "},"¾":{"ha":1090,"x_min":36,"x_max":1057,"o":"m 235 0 l 801 972 l 872 972 l 306 0 l 235 0 m 910 0 l 910 142 l 631 142 l 631 189 l 913 525 l 972 525 l 972 194 l 1057 194 l 1057 142 l 972 142 l 972 0 l 910 0 m 703 194 l 910 194 l 910 442 l 703 194 m 193 440 q 36 481 96 440 l 36 540 q 189 496 104 496 q 289 528 246 496 q 332 615 332 561 q 295 697 332 667 q 194 728 258 728 q 132 718 164 728 l 132 761 l 292 918 l 58 918 l 58 972 l 376 972 l 376 926 l 221 774 q 343 730 292 769 q 394 614 394 690 q 338 488 394 536 q 193 440 281 440 z "},"¿":{"ha":650,"x_min":72,"x_max":607,"o":"m 397 372 l 397 197 q 219 116 296 175 q 143 -31 143 57 q 207 -169 143 -117 q 369 -221 271 -221 q 607 -137 494 -221 l 607 -206 q 358 -283 507 -283 q 155 -215 238 -283 q 72 -32 72 -146 q 146 135 72 67 q 331 238 219 204 l 331 372 l 397 372 m 323 573 q 315 581 323 573 q 307 613 307 589 q 323 652 307 636 q 363 668 339 668 q 402 652 386 668 q 418 613 418 636 q 402 573 418 589 q 363 557 386 557 q 323 573 339 557 z "},"À":{"ha":1033,"x_min":46,"x_max":989,"o":"m 46 0 l 486 978 l 550 978 l 989 0 l 917 0 l 789 283 l 246 283 l 118 0 l 46 0 m 271 344 l 764 344 l 518 888 l 271 344 m 481 1060 l 328 1240 l 419 1240 l 553 1060 l 481 1060 z "},"Á":{"ha":1033,"x_min":46,"x_max":989,"o":"m 46 0 l 486 978 l 550 978 l 989 0 l 917 0 l 789 283 l 246 283 l 118 0 l 46 0 m 271 344 l 764 344 l 518 888 l 271 344 m 488 1060 l 621 1240 l 711 1240 l 560 1060 l 488 1060 z "},"Â":{"ha":1033,"x_min":46,"x_max":989,"o":"m 46 0 l 486 978 l 550 978 l 989 0 l 917 0 l 789 283 l 246 283 l 118 0 l 46 0 m 271 344 l 764 344 l 518 888 l 271 344 m 332 1060 l 482 1240 l 554 1240 l 704 1060 l 631 1060 l 518 1196 l 406 1060 l 332 1060 z "},"Ã":{"ha":1033,"x_min":46,"x_max":989,"o":"m 46 0 l 486 978 l 550 978 l 989 0 l 917 0 l 789 283 l 246 283 l 118 0 l 46 0 m 271 344 l 764 344 l 518 888 l 271 344 m 617 1076 q 513 1120 578 1076 q 421 1164 447 1164 q 363 1085 371 1164 l 310 1085 q 341 1184 313 1147 q 417 1221 369 1221 q 522 1179 456 1221 q 614 1138 588 1138 q 672 1215 663 1138 l 725 1215 q 694 1114 722 1151 q 617 1076 665 1076 z "},"Ä":{"ha":1033,"x_min":46,"x_max":989,"o":"m 46 0 l 486 978 l 550 978 l 989 0 l 917 0 l 789 283 l 246 283 l 118 0 l 46 0 m 271 344 l 764 344 l 518 888 l 271 344 m 347 1108 q 340 1116 347 1108 q 332 1146 332 1124 q 347 1183 332 1168 q 385 1199 363 1199 q 422 1183 407 1199 q 438 1146 438 1168 q 422 1108 438 1124 q 385 1093 407 1093 q 347 1108 363 1093 m 613 1108 q 605 1116 613 1108 q 597 1146 597 1124 q 613 1183 597 1168 q 650 1199 628 1199 q 688 1183 672 1199 q 703 1146 703 1168 q 688 1108 703 1124 q 650 1093 672 1093 q 613 1108 628 1093 z "},"Å":{"ha":1033,"x_min":46,"x_max":989,"o":"m 46 0 l 486 978 l 550 978 l 989 0 l 917 0 l 789 283 l 246 283 l 118 0 l 46 0 m 271 344 l 764 344 l 518 888 l 271 344 m 521 1022 q 427 1060 465 1022 q 389 1151 389 1099 q 428 1244 389 1206 q 521 1282 467 1282 q 610 1243 572 1282 q 649 1151 649 1204 q 611 1060 649 1099 q 521 1022 574 1022 m 521 1069 q 579 1093 556 1069 q 603 1151 603 1117 q 579 1211 603 1188 q 521 1235 556 1235 q 460 1211 485 1235 q 436 1151 436 1188 q 460 1093 436 1117 q 521 1069 485 1069 z "},"Æ":{"ha":1411,"x_min":4,"x_max":1344,"o":"m 618 972 l 1324 972 l 1324 908 l 746 908 l 746 556 l 1222 556 l 1222 490 l 746 490 l 746 64 l 1344 64 l 1344 0 l 676 0 l 676 283 l 261 283 l 82 0 l 4 0 l 618 972 m 676 908 l 658 908 l 299 344 l 676 344 l 676 908 z "},"Ç":{"ha":963,"x_min":103,"x_max":893,"o":"m 533 -178 l 449 -178 l 557 -15 q 232 138 361 -3 q 103 486 103 278 q 244 847 103 704 q 593 989 385 989 q 871 913 753 989 l 871 839 q 594 922 742 922 q 295 798 417 922 q 174 486 174 674 q 296 174 174 299 q 596 49 418 49 q 893 150 765 49 l 893 74 q 624 -15 783 -8 l 533 -178 z "},"È":{"ha":885,"x_min":144,"x_max":819,"o":"m 144 0 l 144 972 l 797 972 l 797 908 l 214 908 l 214 556 l 696 556 l 696 490 l 214 490 l 214 64 l 819 64 l 819 0 l 144 0 m 449 1060 l 296 1240 l 388 1240 l 521 1060 l 449 1060 z "},"É":{"ha":885,"x_min":144,"x_max":819,"o":"m 144 0 l 144 972 l 797 972 l 797 908 l 214 908 l 214 556 l 696 556 l 696 490 l 214 490 l 214 64 l 819 64 l 819 0 l 144 0 m 401 1060 l 535 1240 l 625 1240 l 474 1060 l 401 1060 z "},"Ê":{"ha":885,"x_min":144,"x_max":819,"o":"m 144 0 l 144 972 l 797 972 l 797 908 l 214 908 l 214 556 l 696 556 l 696 490 l 214 490 l 214 64 l 819 64 l 819 0 l 144 0 m 297 1060 l 447 1240 l 519 1240 l 669 1060 l 596 1060 l 483 1196 l 371 1060 l 297 1060 z "},"Ë":{"ha":885,"x_min":144,"x_max":819,"o":"m 144 0 l 144 972 l 797 972 l 797 908 l 214 908 l 214 556 l 696 556 l 696 490 l 214 490 l 214 64 l 819 64 l 819 0 l 144 0 m 310 1108 q 302 1116 310 1108 q 294 1146 294 1124 q 310 1183 294 1168 q 347 1199 325 1199 q 385 1183 369 1199 q 400 1146 400 1168 q 385 1108 400 1124 q 347 1093 369 1093 q 310 1108 325 1093 m 575 1108 q 567 1116 575 1108 q 560 1146 560 1124 q 575 1183 560 1168 q 613 1199 590 1199 q 650 1183 635 1199 q 665 1146 665 1168 q 650 1108 665 1124 q 613 1093 635 1093 q 575 1108 590 1093 z "},"Ì":{"ha":376,"x_min":-3,"x_max":224,"o":"m 154 0 l 154 972 l 224 972 l 224 0 l 154 0 m 150 1060 l -3 1240 l 89 1240 l 222 1060 l 150 1060 z "},"Í":{"ha":376,"x_min":147,"x_max":371,"o":"m 154 0 l 154 972 l 224 972 l 224 0 l 154 0 m 147 1060 l 281 1240 l 371 1240 l 219 1060 l 147 1060 z "},"Î":{"ha":376,"x_min":3,"x_max":375,"o":"m 154 0 l 154 972 l 224 972 l 224 0 l 154 0 m 3 1060 l 153 1240 l 225 1240 l 375 1060 l 301 1060 l 189 1196 l 76 1060 l 3 1060 z "},"Ï":{"ha":375,"x_min":1,"x_max":372,"o":"m 153 0 l 153 972 l 222 972 l 222 0 l 153 0 m 17 1108 q 9 1116 17 1108 q 1 1146 1 1124 q 17 1183 1 1168 q 54 1199 32 1199 q 92 1183 76 1199 q 107 1146 107 1168 q 92 1108 107 1124 q 54 1093 76 1093 q 17 1108 32 1093 m 282 1108 q 274 1116 282 1108 q 267 1146 267 1124 q 282 1183 267 1168 q 319 1199 297 1199 q 357 1183 342 1199 q 372 1146 372 1168 q 357 1108 372 1124 q 319 1093 342 1093 q 282 1108 297 1093 z "},"Ð":{"ha":1138,"x_min":46,"x_max":1035,"o":"m 207 0 l 207 460 l 46 460 l 46 524 l 207 524 l 207 972 l 511 972 q 890 838 744 972 q 1035 486 1035 703 q 890 135 1035 269 q 511 0 744 0 l 207 0 m 276 64 l 500 64 q 839 179 714 64 q 964 486 964 294 q 839 793 964 678 q 500 908 714 908 l 276 908 l 276 524 l 513 524 l 513 460 l 276 460 l 276 64 z "},"Ñ":{"ha":1076,"x_min":144,"x_max":931,"o":"m 144 0 l 144 972 l 206 972 l 861 121 l 861 972 l 931 972 l 931 0 l 871 0 l 214 853 l 214 0 l 144 0 m 638 1076 q 533 1120 600 1076 q 442 1164 467 1164 q 383 1085 392 1164 l 331 1085 q 362 1184 333 1147 q 438 1221 390 1221 q 542 1179 476 1221 q 635 1138 608 1138 q 693 1215 683 1138 l 746 1215 q 715 1114 743 1151 q 638 1076 686 1076 z "},"Ò":{"ha":1175,"x_min":103,"x_max":1071,"o":"m 294 174 q 354 111 294 174 q 588 49 414 49 q 881 174 761 49 q 1000 486 1000 299 q 881 798 1000 674 q 588 922 761 922 q 293 798 413 922 q 174 486 174 674 q 294 174 174 299 m 588 -17 q 241 126 379 -17 q 103 486 103 269 q 242 845 103 701 q 588 989 381 989 q 932 845 793 989 q 1071 486 1071 701 q 932 127 1071 271 q 588 -17 793 -17 m 551 1060 l 399 1240 l 490 1240 l 624 1060 l 551 1060 z "},"Ó":{"ha":1175,"x_min":103,"x_max":1071,"o":"m 294 174 q 354 111 294 174 q 588 49 414 49 q 881 174 761 49 q 1000 486 1000 299 q 881 798 1000 674 q 588 922 761 922 q 293 798 413 922 q 174 486 174 674 q 294 174 174 299 m 588 -17 q 241 126 379 -17 q 103 486 103 269 q 242 845 103 701 q 588 989 381 989 q 932 845 793 989 q 1071 486 1071 701 q 932 127 1071 271 q 588 -17 793 -17 m 524 1060 l 657 1240 l 747 1240 l 596 1060 l 524 1060 z "},"Ô":{"ha":1175,"x_min":103,"x_max":1071,"o":"m 294 174 q 354 111 294 174 q 588 49 414 49 q 881 174 761 49 q 1000 486 1000 299 q 881 798 1000 674 q 588 922 761 922 q 293 798 413 922 q 174 486 174 674 q 294 174 174 299 m 588 -17 q 241 126 379 -17 q 103 486 103 269 q 242 845 103 701 q 588 989 381 989 q 932 845 793 989 q 1071 486 1071 701 q 932 127 1071 271 q 588 -17 793 -17 m 401 1060 l 551 1240 l 624 1240 l 774 1060 l 700 1060 l 588 1196 l 475 1060 l 401 1060 z "},"Õ":{"ha":1175,"x_min":103,"x_max":1071,"o":"m 294 174 q 354 111 294 174 q 588 49 414 49 q 881 174 761 49 q 1000 486 1000 299 q 881 798 1000 674 q 588 922 761 922 q 293 798 413 922 q 174 486 174 674 q 294 174 174 299 m 588 -17 q 241 126 379 -17 q 103 486 103 269 q 242 845 103 701 q 588 989 381 989 q 932 845 793 989 q 1071 486 1071 701 q 932 127 1071 271 q 588 -17 793 -17 m 688 1076 q 583 1120 650 1076 q 492 1164 517 1164 q 433 1085 442 1164 l 381 1085 q 412 1184 383 1147 q 488 1221 440 1221 q 592 1179 526 1221 q 685 1138 658 1138 q 743 1215 733 1138 l 796 1215 q 765 1114 793 1151 q 688 1076 736 1076 z "},"Ö":{"ha":1175,"x_min":103,"x_max":1071,"o":"m 294 174 q 354 111 294 174 q 588 49 414 49 q 881 174 761 49 q 1000 486 1000 299 q 881 798 1000 674 q 588 922 761 922 q 293 798 413 922 q 174 486 174 674 q 294 174 174 299 m 588 -17 q 241 126 379 -17 q 103 486 103 269 q 242 845 103 701 q 588 989 381 989 q 932 845 793 989 q 1071 486 1071 701 q 932 127 1071 271 q 588 -17 793 -17 m 418 1108 q 410 1116 418 1108 q 403 1146 403 1124 q 418 1183 403 1168 q 456 1199 433 1199 q 493 1183 478 1199 q 508 1146 508 1168 q 493 1108 508 1124 q 456 1093 478 1093 q 418 1108 433 1093 m 683 1108 q 676 1116 683 1108 q 668 1146 668 1124 q 683 1183 668 1168 q 721 1199 699 1199 q 758 1183 743 1199 q 774 1146 774 1168 q 758 1108 774 1124 q 721 1093 743 1093 q 683 1108 699 1093 z "},"×":{"ha":726,"x_min":97,"x_max":629,"o":"m 140 183 l 97 228 l 319 449 l 97 672 l 140 715 l 364 494 l 585 715 l 629 672 l 406 449 l 628 229 l 585 183 l 365 406 l 140 183 z "},"Ø":{"ha":1175,"x_min":103,"x_max":1071,"o":"m 588 -17 q 290 83 421 -17 l 221 0 l 147 0 l 247 121 q 103 486 103 265 q 242 845 103 701 q 588 989 381 989 q 885 888 753 989 l 954 972 l 1029 972 l 928 849 q 1071 486 1071 703 q 932 127 1071 271 q 588 -17 793 -17 m 174 486 q 292 175 174 297 l 840 835 q 588 922 731 922 q 293 798 413 922 q 174 486 174 674 m 588 49 q 881 174 761 49 q 1000 486 1000 299 q 882 796 1000 674 l 335 136 q 588 49 444 49 z "},"Ù":{"ha":1038,"x_min":129,"x_max":908,"o":"m 519 -17 q 236 97 343 -17 q 129 415 129 210 l 129 972 l 199 972 l 199 415 q 285 145 199 242 q 519 49 371 49 q 753 144 668 49 q 839 415 839 240 l 839 972 l 908 972 l 908 415 q 801 97 908 210 q 519 -17 693 -17 m 499 1060 l 346 1240 l 438 1240 l 571 1060 l 499 1060 z "},"Ú":{"ha":1038,"x_min":129,"x_max":908,"o":"m 519 -17 q 236 97 343 -17 q 129 415 129 210 l 129 972 l 199 972 l 199 415 q 285 145 199 242 q 519 49 371 49 q 753 144 668 49 q 839 415 839 240 l 839 972 l 908 972 l 908 415 q 801 97 908 210 q 519 -17 693 -17 m 475 1060 l 608 1240 l 699 1240 l 547 1060 l 475 1060 z "},"Û":{"ha":1038,"x_min":129,"x_max":908,"o":"m 519 -17 q 236 97 343 -17 q 129 415 129 210 l 129 972 l 199 972 l 199 415 q 285 145 199 242 q 519 49 371 49 q 753 144 668 49 q 839 415 839 240 l 839 972 l 908 972 l 908 415 q 801 97 908 210 q 519 -17 693 -17 m 332 1060 l 482 1240 l 554 1240 l 704 1060 l 631 1060 l 518 1196 l 406 1060 l 332 1060 z "},"Ü":{"ha":1038,"x_min":129,"x_max":908,"o":"m 519 -17 q 236 97 343 -17 q 129 415 129 210 l 129 972 l 199 972 l 199 415 q 285 145 199 242 q 519 49 371 49 q 753 144 668 49 q 839 415 839 240 l 839 972 l 908 972 l 908 415 q 801 97 908 210 q 519 -17 693 -17 m 349 1108 q 341 1116 349 1108 q 333 1146 333 1124 q 349 1183 333 1168 q 386 1199 364 1199 q 424 1183 408 1199 q 439 1146 439 1168 q 424 1108 439 1124 q 386 1093 408 1093 q 349 1108 364 1093 m 614 1108 q 606 1116 614 1108 q 599 1146 599 1124 q 614 1183 599 1168 q 651 1199 629 1199 q 689 1183 674 1199 q 704 1146 704 1168 q 689 1108 704 1124 q 651 1093 674 1093 q 614 1108 629 1093 z "},"Ý":{"ha":901,"x_min":36,"x_max":863,"o":"m 414 0 l 414 450 l 36 972 l 119 972 l 450 515 l 783 972 l 863 972 l 483 451 l 483 0 l 414 0 m 400 1060 l 533 1240 l 624 1240 l 472 1060 l 400 1060 z "},"Þ":{"ha":924,"x_min":144,"x_max":851,"o":"m 144 0 l 144 972 l 214 972 l 214 749 l 550 749 q 772 676 693 749 q 851 486 851 604 q 772 294 851 367 q 550 222 693 222 l 214 222 l 214 0 l 144 0 m 214 286 l 543 286 q 719 338 657 286 q 782 486 782 390 q 720 632 782 581 q 543 683 658 683 l 214 683 l 214 286 z "},"ß":{"ha":853,"x_min":124,"x_max":776,"o":"m 474 -17 q 343 4 392 -17 l 343 71 q 464 46 394 46 q 638 106 569 46 q 707 268 707 167 q 628 444 707 376 q 418 511 549 511 l 388 511 l 388 571 l 418 571 q 567 614 514 571 q 621 739 621 657 q 563 869 621 818 q 414 919 506 919 q 253 857 315 919 q 192 689 192 794 l 192 0 l 124 0 l 124 689 q 203 902 124 822 q 414 982 283 982 q 613 915 536 982 q 690 744 690 847 q 544 546 690 590 q 710 451 643 524 q 776 261 776 379 q 691 59 776 135 q 474 -17 606 -17 z "},"à":{"ha":819,"x_min":67,"x_max":776,"o":"m 342 46 q 490 84 422 46 q 599 175 558 122 l 599 283 q 360 358 488 358 q 197 316 256 358 q 138 203 138 274 q 197 85 138 124 q 342 46 256 46 m 322 -17 q 142 41 218 -17 q 67 201 67 99 q 145 358 67 299 q 342 418 224 418 q 599 347 482 418 l 599 432 q 365 618 599 618 q 142 547 243 618 l 142 615 q 378 681 242 681 q 587 620 507 681 q 667 438 667 560 l 667 146 q 686 78 667 103 q 738 53 706 53 q 776 61 760 53 l 776 6 q 721 -6 758 -6 q 642 23 675 -6 q 606 108 610 51 q 322 -17 493 -17 m 401 801 l 247 982 l 340 982 l 474 801 l 401 801 z "},"á":{"ha":819,"x_min":67,"x_max":776,"o":"m 342 46 q 490 84 422 46 q 599 175 558 122 l 599 283 q 360 358 488 358 q 197 316 256 358 q 138 203 138 274 q 197 85 138 124 q 342 46 256 46 m 322 -17 q 142 41 218 -17 q 67 201 67 99 q 145 358 67 299 q 342 418 224 418 q 599 347 482 418 l 599 432 q 365 618 599 618 q 142 547 243 618 l 142 615 q 378 681 242 681 q 587 620 507 681 q 667 438 667 560 l 667 146 q 686 78 667 103 q 738 53 706 53 q 776 61 760 53 l 776 6 q 721 -6 758 -6 q 642 23 675 -6 q 606 108 610 51 q 322 -17 493 -17 m 326 801 l 460 982 l 550 982 l 399 801 l 326 801 z "},"â":{"ha":819,"x_min":67,"x_max":776,"o":"m 342 46 q 490 84 422 46 q 599 175 558 122 l 599 283 q 360 358 488 358 q 197 316 256 358 q 138 203 138 274 q 197 85 138 124 q 342 46 256 46 m 322 -17 q 142 41 218 -17 q 67 201 67 99 q 145 358 67 299 q 342 418 224 418 q 599 347 482 418 l 599 432 q 365 618 599 618 q 142 547 243 618 l 142 615 q 378 681 242 681 q 587 620 507 681 q 667 438 667 560 l 667 146 q 686 78 667 103 q 738 53 706 53 q 776 61 760 53 l 776 6 q 721 -6 758 -6 q 642 23 675 -6 q 606 108 610 51 q 322 -17 493 -17 m 199 800 l 350 982 l 422 982 l 572 800 l 499 800 l 385 936 l 272 800 l 199 800 z "},"ã":{"ha":819,"x_min":67,"x_max":776,"o":"m 342 46 q 490 84 422 46 q 599 175 558 122 l 599 283 q 360 358 488 358 q 197 316 256 358 q 138 203 138 274 q 197 85 138 124 q 342 46 256 46 m 322 -17 q 142 41 218 -17 q 67 201 67 99 q 145 358 67 299 q 342 418 224 418 q 599 347 482 418 l 599 432 q 365 618 599 618 q 142 547 243 618 l 142 615 q 378 681 242 681 q 587 620 507 681 q 667 438 667 560 l 667 146 q 686 78 667 103 q 738 53 706 53 q 776 61 760 53 l 776 6 q 721 -6 758 -6 q 642 23 675 -6 q 606 108 610 51 q 322 -17 493 -17 m 490 822 q 385 865 450 822 q 292 908 319 908 q 235 831 243 908 l 182 831 q 214 931 185 893 q 290 968 243 968 q 396 926 331 968 q 486 883 461 883 q 543 961 535 883 l 596 961 q 565 860 593 897 q 490 822 538 822 z "},"ä":{"ha":819,"x_min":67,"x_max":776,"o":"m 342 46 q 490 84 422 46 q 599 175 558 122 l 599 283 q 360 358 488 358 q 197 316 256 358 q 138 203 138 274 q 197 85 138 124 q 342 46 256 46 m 322 -17 q 142 41 218 -17 q 67 201 67 99 q 145 358 67 299 q 342 418 224 418 q 599 347 482 418 l 599 432 q 365 618 599 618 q 142 547 243 618 l 142 615 q 378 681 242 681 q 587 620 507 681 q 667 438 667 560 l 667 146 q 686 78 667 103 q 738 53 706 53 q 776 61 760 53 l 776 6 q 721 -6 758 -6 q 642 23 675 -6 q 606 108 610 51 q 322 -17 493 -17 m 228 858 q 220 866 228 858 q 213 896 213 874 q 228 933 213 918 q 265 949 243 949 q 303 933 288 949 q 318 896 318 918 q 303 858 318 874 q 265 843 288 843 q 228 858 243 843 m 493 858 q 485 866 493 858 q 478 896 478 874 q 493 933 478 918 q 531 949 508 949 q 568 933 553 949 q 583 896 583 918 q 568 858 583 874 q 531 843 553 843 q 493 858 508 843 z "},"å":{"ha":819,"x_min":67,"x_max":776,"o":"m 342 46 q 490 84 422 46 q 599 175 558 122 l 599 283 q 360 358 488 358 q 197 316 256 358 q 138 203 138 274 q 197 85 138 124 q 342 46 256 46 m 322 -17 q 142 41 218 -17 q 67 201 67 99 q 145 358 67 299 q 342 418 224 418 q 599 347 482 418 l 599 432 q 365 618 599 618 q 142 547 243 618 l 142 615 q 378 681 242 681 q 587 620 507 681 q 667 438 667 560 l 667 146 q 686 78 667 103 q 738 53 706 53 q 776 61 760 53 l 776 6 q 721 -6 758 -6 q 642 23 675 -6 q 606 108 610 51 q 322 -17 493 -17 m 393 767 q 299 805 338 767 q 261 896 261 843 q 300 988 261 950 q 393 1026 339 1026 q 483 988 446 1026 q 521 896 521 949 q 483 805 521 843 q 393 767 446 767 m 393 814 q 452 838 428 814 q 476 896 476 861 q 452 956 476 932 q 393 979 428 979 q 333 956 357 979 q 308 896 308 932 q 333 838 308 861 q 393 814 357 814 z "},"æ":{"ha":1311,"x_min":67,"x_max":1235,"o":"m 1235 343 l 1235 321 l 665 321 q 753 122 669 199 q 969 46 838 46 q 1183 108 1093 46 l 1183 43 q 960 -17 1104 -17 q 776 27 858 -17 q 649 147 694 71 q 519 35 603 88 q 328 -17 436 -17 q 143 41 219 -17 q 67 201 67 99 q 145 358 67 299 q 342 417 224 417 q 600 346 481 417 l 600 431 q 365 618 600 618 q 142 547 243 618 l 142 615 q 378 681 243 681 q 550 642 478 681 q 650 526 622 604 q 765 640 693 599 q 928 681 836 681 q 1049 658 994 681 q 1137 601 1103 636 q 1194 519 1171 565 q 1226 430 1217 474 q 1235 343 1235 386 m 344 46 q 622 197 508 46 q 601 282 607 235 q 360 360 482 360 q 197 317 256 360 q 138 203 138 275 q 197 85 138 124 q 344 46 256 46 m 667 379 l 1167 379 q 1145 483 1167 432 q 1067 576 1124 535 q 926 618 1010 618 q 742 545 813 618 q 667 379 672 472 z "},"ç":{"ha":728,"x_min":75,"x_max":639,"o":"m 75 332 q 174 579 75 478 q 426 681 274 681 q 626 629 539 681 l 626 564 q 435 618 533 618 q 228 535 311 618 q 144 331 144 453 q 228 127 144 208 q 435 46 311 46 q 639 108 550 46 l 639 42 q 469 -15 565 -7 l 379 -178 l 296 -178 l 406 -17 q 168 90 261 -11 q 75 332 75 190 z "},"è":{"ha":789,"x_min":75,"x_max":713,"o":"m 438 -17 q 178 81 282 -17 q 75 331 75 179 q 167 581 75 481 q 406 681 260 681 q 526 658 472 681 q 615 601 581 636 q 672 519 649 565 q 703 430 694 474 q 713 343 713 386 l 713 321 l 143 321 q 231 122 147 199 q 447 46 315 46 q 661 108 571 46 l 661 43 q 438 -17 582 -17 m 144 379 l 644 379 q 631 456 644 417 q 591 533 618 496 q 515 594 564 571 q 404 618 467 618 q 220 545 290 618 q 144 379 150 472 m 426 801 l 272 982 l 365 982 l 499 801 l 426 801 z "},"é":{"ha":789,"x_min":75,"x_max":713,"o":"m 438 -17 q 178 81 282 -17 q 75 331 75 179 q 167 581 75 481 q 406 681 260 681 q 526 658 472 681 q 615 601 581 636 q 672 519 649 565 q 703 430 694 474 q 713 343 713 386 l 713 321 l 143 321 q 231 122 147 199 q 447 46 315 46 q 661 108 571 46 l 661 43 q 438 -17 582 -17 m 144 379 l 644 379 q 631 456 644 417 q 591 533 618 496 q 515 594 564 571 q 404 618 467 618 q 220 545 290 618 q 144 379 150 472 m 333 801 l 467 982 l 557 982 l 406 801 l 333 801 z "},"ê":{"ha":789,"x_min":75,"x_max":713,"o":"m 438 -17 q 178 81 282 -17 q 75 331 75 179 q 167 581 75 481 q 406 681 260 681 q 526 658 472 681 q 615 601 581 636 q 672 519 649 565 q 703 430 694 474 q 713 343 713 386 l 713 321 l 143 321 q 231 122 147 199 q 447 46 315 46 q 661 108 571 46 l 661 43 q 438 -17 582 -17 m 144 379 l 644 379 q 631 456 644 417 q 591 533 618 496 q 515 594 564 571 q 404 618 467 618 q 220 545 290 618 q 144 379 150 472 m 217 800 l 368 982 l 440 982 l 590 800 l 517 800 l 403 936 l 290 800 l 217 800 z "},"ë":{"ha":789,"x_min":75,"x_max":713,"o":"m 438 -17 q 178 81 282 -17 q 75 331 75 179 q 167 581 75 481 q 406 681 260 681 q 526 658 472 681 q 615 601 581 636 q 672 519 649 565 q 703 430 694 474 q 713 343 713 386 l 713 321 l 143 321 q 231 122 147 199 q 447 46 315 46 q 661 108 571 46 l 661 43 q 438 -17 582 -17 m 144 379 l 644 379 q 631 456 644 417 q 591 533 618 496 q 515 594 564 571 q 404 618 467 618 q 220 545 290 618 q 144 379 150 472 m 243 858 q 235 866 243 858 q 228 896 228 874 q 243 933 228 918 q 281 949 258 949 q 318 933 303 949 q 333 896 333 918 q 318 858 333 874 q 281 843 303 843 q 243 858 258 843 m 508 858 q 501 866 508 858 q 493 896 493 874 q 508 933 493 918 q 546 949 524 949 q 583 933 568 949 q 599 896 599 918 q 583 858 599 874 q 546 843 568 843 q 508 858 524 843 z "},"ì":{"ha":351,"x_min":-12,"x_max":214,"o":"m 142 801 l -12 982 l 81 982 l 214 801 l 142 801 m 142 0 l 142 664 l 210 664 l 210 0 l 142 0 z "},"í":{"ha":351,"x_min":140,"x_max":364,"o":"m 140 801 l 274 982 l 364 982 l 213 801 l 140 801 m 142 0 l 142 664 l 210 664 l 210 0 l 142 0 z "},"î":{"ha":351,"x_min":-11,"x_max":363,"o":"m 142 0 l 142 664 l 210 664 l 210 0 l 142 0 m -11 800 l 140 982 l 213 982 l 363 800 l 289 800 l 175 936 l 63 800 l -11 800 z "},"ï":{"ha":351,"x_min":-10,"x_max":361,"o":"m 6 858 q -2 866 6 858 q -10 896 -10 874 q 6 933 -10 918 q 43 949 21 949 q 81 933 65 949 q 96 896 96 918 q 81 858 96 874 q 43 843 65 843 q 6 858 21 843 m 271 858 q 263 866 271 858 q 256 896 256 874 q 271 933 256 918 q 308 949 286 949 q 346 933 331 949 q 361 896 361 918 q 346 858 361 874 q 308 843 331 843 q 271 858 286 843 m 142 0 l 142 664 l 210 664 l 210 0 l 142 0 z "},"ð":{"ha":826,"x_min":75,"x_max":751,"o":"m 657 82 q 610 33 657 82 q 413 -17 563 -17 q 169 81 263 -17 q 75 314 75 179 q 166 544 75 449 q 399 640 257 640 q 564 601 496 640 l 407 825 l 217 749 l 186 793 l 375 871 l 300 972 l 376 972 l 433 893 l 599 963 l 629 918 l 464 849 q 665 554 622 622 q 729 438 707 490 q 751 318 751 385 q 657 82 751 181 m 413 46 q 605 123 528 46 q 682 315 682 200 q 605 506 682 429 q 413 582 528 582 q 221 506 297 582 q 144 315 144 429 q 222 123 144 200 q 413 46 299 46 z "},"ñ":{"ha":840,"x_min":124,"x_max":729,"o":"m 192 0 l 124 0 l 124 664 l 192 664 l 192 550 q 309 642 236 604 q 472 681 382 681 q 665 608 600 681 q 729 404 729 536 l 729 0 l 661 0 l 661 390 q 642 507 661 460 q 588 576 622 554 q 522 608 554 599 q 451 617 489 617 q 301 571 375 617 q 192 465 228 525 l 192 0 m 528 822 q 422 865 489 822 q 329 908 356 908 q 272 831 281 908 l 219 831 q 251 931 222 893 q 328 968 281 968 q 433 926 368 968 q 524 883 499 883 q 581 961 572 883 l 633 961 q 603 860 631 897 q 528 822 575 822 z "},"ò":{"ha":857,"x_min":75,"x_max":782,"o":"m 226 128 q 266 87 226 128 q 428 46 307 46 q 631 128 549 46 q 713 331 713 211 q 631 535 713 453 q 428 618 549 618 q 226 535 307 618 q 144 331 144 453 q 226 128 144 210 m 428 -17 q 174 85 272 -17 q 75 331 75 188 q 174 577 75 474 q 428 681 272 681 q 683 577 585 681 q 782 331 782 474 q 683 85 782 188 q 428 -17 585 -17 m 421 801 l 267 982 l 360 982 l 493 801 l 421 801 z "},"ó":{"ha":857,"x_min":75,"x_max":782,"o":"m 226 128 q 266 87 226 128 q 428 46 307 46 q 631 128 549 46 q 713 331 713 211 q 631 535 713 453 q 428 618 549 618 q 226 535 307 618 q 144 331 144 453 q 226 128 144 210 m 428 -17 q 174 85 272 -17 q 75 331 75 188 q 174 577 75 474 q 428 681 272 681 q 683 577 585 681 q 782 331 782 474 q 683 85 782 188 q 428 -17 585 -17 m 381 801 l 514 982 l 604 982 l 453 801 l 381 801 z "},"ô":{"ha":857,"x_min":75,"x_max":782,"o":"m 226 128 q 266 87 226 128 q 428 46 307 46 q 631 128 549 46 q 713 331 713 211 q 631 535 713 453 q 428 618 549 618 q 226 535 307 618 q 144 331 144 453 q 226 128 144 210 m 428 -17 q 174 85 272 -17 q 75 331 75 188 q 174 577 75 474 q 428 681 272 681 q 683 577 585 681 q 782 331 782 474 q 683 85 782 188 q 428 -17 585 -17 m 243 800 l 394 982 l 467 982 l 617 800 l 543 800 l 429 936 l 317 800 l 243 800 z "},"õ":{"ha":857,"x_min":75,"x_max":782,"o":"m 226 128 q 266 87 226 128 q 428 46 307 46 q 631 128 549 46 q 713 331 713 211 q 631 535 713 453 q 428 618 549 618 q 226 535 307 618 q 144 331 144 453 q 226 128 144 210 m 428 -17 q 174 85 272 -17 q 75 331 75 188 q 174 577 75 474 q 428 681 272 681 q 683 577 585 681 q 782 331 782 474 q 683 85 782 188 q 428 -17 585 -17 m 531 822 q 425 865 492 822 q 332 908 358 908 q 275 831 283 908 l 222 831 q 254 931 225 893 q 331 968 283 968 q 436 926 371 968 q 526 883 501 883 q 583 961 575 883 l 636 961 q 606 860 633 897 q 531 822 578 822 z "},"ö":{"ha":857,"x_min":75,"x_max":782,"o":"m 226 128 q 266 87 226 128 q 428 46 307 46 q 631 128 549 46 q 713 331 713 211 q 631 535 713 453 q 428 618 549 618 q 226 535 307 618 q 144 331 144 453 q 226 128 144 210 m 428 -17 q 174 85 272 -17 q 75 331 75 188 q 174 577 75 474 q 428 681 272 681 q 683 577 585 681 q 782 331 782 474 q 683 85 782 188 q 428 -17 585 -17 m 258 858 q 251 866 258 858 q 243 896 243 874 q 258 933 243 918 q 296 949 274 949 q 333 933 318 949 q 349 896 349 918 q 333 858 349 874 q 296 843 318 843 q 258 858 274 843 m 524 858 q 516 866 524 858 q 508 896 508 874 q 524 933 508 918 q 561 949 539 949 q 599 933 583 949 q 614 896 614 918 q 599 858 614 874 q 561 843 583 843 q 524 858 539 843 z "},"÷":{"ha":807,"x_min":97,"x_max":710,"o":"m 97 418 l 97 481 l 710 481 l 710 418 l 97 418 m 360 678 q 351 687 360 678 q 342 721 342 696 q 360 764 342 746 q 403 782 378 782 q 446 764 428 782 q 464 721 464 746 q 446 678 464 696 q 403 660 428 660 q 360 678 378 660 m 360 135 q 351 144 360 135 q 342 178 342 153 q 360 221 342 203 q 403 239 378 239 q 446 221 428 239 q 464 178 464 203 q 446 135 464 153 q 403 117 428 117 q 360 135 378 117 z "},"ø":{"ha":857,"x_min":75,"x_max":782,"o":"m 669 664 l 742 664 l 676 583 q 782 331 782 481 q 683 85 782 188 q 428 -17 585 -17 q 224 43 313 -17 l 186 0 l 114 0 l 181 79 q 75 331 75 181 q 174 577 75 474 q 428 681 272 681 q 632 619 542 681 l 669 664 m 144 331 q 224 129 144 213 l 590 568 q 428 618 515 618 q 226 535 307 618 q 144 331 144 453 m 428 46 q 631 128 549 46 q 713 331 713 211 q 632 532 713 451 l 265 94 q 428 46 339 46 z "},"ù":{"ha":843,"x_min":113,"x_max":718,"o":"m 650 664 l 718 664 l 718 0 l 650 0 l 650 114 q 533 22 606 60 q 369 -17 460 -17 q 177 56 242 -17 q 113 260 113 128 l 113 664 l 181 664 l 181 274 q 390 47 181 47 q 539 93 465 47 q 650 199 613 139 l 650 664 m 422 801 l 268 982 l 361 982 l 494 801 l 422 801 z "},"ú":{"ha":843,"x_min":113,"x_max":718,"o":"m 650 664 l 718 664 l 718 0 l 650 0 l 650 114 q 533 22 606 60 q 369 -17 460 -17 q 177 56 242 -17 q 113 260 113 128 l 113 664 l 181 664 l 181 274 q 390 47 181 47 q 539 93 465 47 q 650 199 613 139 l 650 664 m 344 801 l 478 982 l 568 982 l 417 801 l 344 801 z "},"û":{"ha":843,"x_min":113,"x_max":718,"o":"m 650 664 l 718 664 l 718 0 l 650 0 l 650 114 q 533 22 606 60 q 369 -17 460 -17 q 177 56 242 -17 q 113 260 113 128 l 113 664 l 181 664 l 181 274 q 390 47 181 47 q 539 93 465 47 q 650 199 613 139 l 650 664 m 228 800 l 379 982 l 451 982 l 601 800 l 528 800 l 414 936 l 301 800 l 228 800 z "},"ü":{"ha":843,"x_min":113,"x_max":718,"o":"m 650 664 l 718 664 l 718 0 l 650 0 l 650 114 q 533 22 606 60 q 369 -17 460 -17 q 177 56 242 -17 q 113 260 113 128 l 113 664 l 181 664 l 181 274 q 390 47 181 47 q 539 93 465 47 q 650 199 613 139 l 650 664 m 244 858 q 237 866 244 858 q 229 896 229 874 q 244 933 229 918 q 282 949 260 949 q 319 933 304 949 q 335 896 335 918 q 319 858 335 874 q 282 843 304 843 q 244 858 260 843 m 510 858 q 502 866 510 858 q 494 896 494 874 q 510 933 494 918 q 547 949 525 949 q 585 933 569 949 q 600 896 600 918 q 585 858 600 874 q 547 843 569 843 q 510 858 525 843 z "},"ý":{"ha":756,"x_min":36,"x_max":707,"o":"m 143 -283 q 46 -262 76 -283 l 46 -199 q 135 -221 85 -221 q 244 -167 200 -221 q 343 13 288 -114 l 36 664 l 113 664 l 376 94 l 632 664 l 707 664 l 372 -75 q 272 -231 325 -179 q 143 -283 219 -283 m 321 801 l 454 982 l 544 982 l 393 801 l 321 801 z "},"þ":{"ha":878,"x_min":124,"x_max":803,"o":"m 464 681 q 708 578 613 681 q 803 332 803 475 q 708 87 803 190 q 464 -17 613 -17 q 192 117 289 -17 l 192 -278 l 124 -278 l 124 972 l 192 972 l 192 549 q 464 681 288 681 m 450 618 q 296 573 367 618 q 192 456 225 528 l 192 210 q 296 92 225 139 q 450 46 367 46 q 651 128 571 46 q 732 332 732 211 q 651 535 732 453 q 450 618 571 618 z "},"ÿ":{"ha":756,"x_min":36,"x_max":707,"o":"m 143 -283 q 46 -262 76 -283 l 46 -199 q 135 -221 85 -221 q 244 -167 200 -221 q 343 13 288 -114 l 36 664 l 113 664 l 376 94 l 632 664 l 707 664 l 372 -75 q 272 -231 325 -179 q 143 -283 219 -283 m 201 858 q 194 866 201 858 q 186 896 186 874 q 201 933 186 918 q 239 949 217 949 q 276 933 261 949 q 292 896 292 918 q 276 858 292 874 q 239 843 261 843 q 201 858 217 843 m 467 858 q 459 866 467 858 q 451 896 451 874 q 467 933 451 918 q 504 949 482 949 q 542 933 526 949 q 557 896 557 918 q 542 858 557 874 q 504 843 526 843 q 467 858 482 843 z "},"Œ":{"ha":1585,"x_min":103,"x_max":1518,"o":"m 1518 0 l 629 0 q 249 135 394 0 q 103 486 103 269 q 249 838 103 703 q 629 972 394 972 l 1496 972 l 1496 908 l 918 908 l 918 556 l 1394 556 l 1394 490 l 918 490 l 918 64 l 1518 64 l 1518 0 m 642 64 l 850 64 l 850 908 l 642 908 q 300 793 425 908 q 175 486 175 678 q 300 179 175 294 q 642 64 425 64 z "},"œ":{"ha":1425,"x_min":75,"x_max":1349,"o":"m 1349 343 l 1349 321 l 779 321 q 867 122 783 199 q 1083 46 951 46 q 1297 108 1207 46 l 1297 43 q 1074 -17 1218 -17 q 876 35 963 -17 q 746 176 789 86 q 622 36 704 89 q 428 -17 539 -17 q 174 85 272 -17 q 75 331 75 188 q 174 577 75 474 q 428 681 272 681 q 619 627 536 681 q 743 488 701 574 q 860 628 782 576 q 1042 681 938 681 q 1163 658 1108 681 q 1251 601 1217 636 q 1308 519 1285 565 q 1340 430 1331 474 q 1349 343 1349 386 m 226 128 q 266 87 226 128 q 428 46 307 46 q 631 128 549 46 q 713 331 713 211 q 631 535 713 453 q 428 618 549 618 q 226 535 307 618 q 144 331 144 453 q 226 128 144 210 m 781 379 l 1281 379 q 1259 483 1281 432 q 1181 576 1238 535 q 1040 618 1124 618 q 856 545 926 618 q 781 379 786 472 z "},"Ÿ":{"ha":901,"x_min":36,"x_max":863,"o":"m 414 0 l 414 450 l 36 972 l 119 972 l 450 515 l 783 972 l 863 972 l 483 451 l 483 0 l 414 0 m 281 1108 q 273 1116 281 1108 q 265 1146 265 1124 q 281 1183 265 1168 q 318 1199 296 1199 q 356 1183 340 1199 q 371 1146 371 1168 q 356 1108 371 1124 q 318 1093 340 1093 q 281 1108 296 1093 m 546 1108 q 538 1116 546 1108 q 531 1146 531 1124 q 546 1183 531 1168 q 583 1199 561 1199 q 621 1183 606 1199 q 636 1146 636 1168 q 621 1108 636 1124 q 583 1093 606 1093 q 546 1108 561 1093 z "},"ˆ":{"ha":733,"x_min":181,"x_max":554,"o":"m 181 800 l 332 982 l 404 982 l 554 800 l 481 800 l 367 936 l 254 800 l 181 800 z "},"˜":{"ha":721,"x_min":153,"x_max":567,"o":"m 461 822 q 356 865 422 822 q 263 908 289 908 q 206 831 214 908 l 153 831 q 185 931 156 893 q 261 968 214 968 q 367 926 301 968 q 457 883 432 883 q 514 961 506 883 l 567 961 q 536 860 564 897 q 461 822 508 822 z "}," ":{"ha":640,"x_min":0,"x_max":0,"o":""}," ":{"ha":1282,"x_min":0,"x_max":0,"o":""}," ":{"ha":640,"x_min":0,"x_max":0,"o":""}," ":{"ha":1282,"x_min":0,"x_max":0,"o":""}," ":{"ha":426,"x_min":0,"x_max":0,"o":""}," ":{"ha":319,"x_min":0,"x_max":0,"o":""}," ":{"ha":213,"x_min":0,"x_max":0,"o":""}," ":{"ha":213,"x_min":0,"x_max":0,"o":""}," ":{"ha":160,"x_min":0,"x_max":0,"o":""}," ":{"ha":256,"x_min":0,"x_max":0,"o":""}," ":{"ha":71,"x_min":0,"x_max":0,"o":""},"‐":{"ha":663,"x_min":143,"x_max":519,"o":"m 143 343 l 143 406 l 519 406 l 519 343 l 143 343 z "},"‑":{"ha":663,"x_min":143,"x_max":519,"o":"m 143 343 l 143 406 l 519 406 l 519 343 l 143 343 z "},"‒":{"ha":663,"x_min":143,"x_max":519,"o":"m 143 343 l 143 406 l 519 406 l 519 343 l 143 343 z "},"–":{"ha":999,"x_min":143,"x_max":856,"o":"m 143 343 l 143 406 l 856 406 l 856 343 l 143 343 z "},"—":{"ha":1256,"x_min":143,"x_max":1114,"o":"m 143 343 l 143 406 l 1114 406 l 1114 343 l 143 343 z "},"‘":{"ha":253,"x_min":28,"x_max":217,"o":"m 217 972 l 111 638 l 28 638 l 158 972 l 217 972 z "},"’":{"ha":253,"x_min":35,"x_max":224,"o":"m 35 638 l 140 972 l 224 972 l 93 638 l 35 638 z "},"‚":{"ha":311,"x_min":31,"x_max":219,"o":"m 31 -211 l 136 124 l 219 124 l 89 -211 l 31 -211 z "},"“":{"ha":435,"x_min":28,"x_max":397,"o":"m 397 972 l 292 638 l 208 638 l 339 972 l 397 972 m 217 972 l 111 638 l 28 638 l 158 972 l 217 972 z "},"”":{"ha":435,"x_min":35,"x_max":404,"o":"m 215 638 l 321 972 l 404 972 l 274 638 l 215 638 m 35 638 l 140 972 l 224 972 l 93 638 l 35 638 z "},"„":{"ha":492,"x_min":31,"x_max":400,"o":"m 211 -211 l 317 124 l 400 124 l 269 -211 l 211 -211 m 31 -211 l 136 124 l 219 124 l 89 -211 l 31 -211 z "},"•":{"ha":564,"x_min":142,"x_max":421,"o":"m 281 388 q 183 428 225 388 q 142 525 142 469 q 183 623 142 582 q 281 664 225 664 q 381 624 340 664 q 421 525 421 583 q 380 428 421 468 q 281 388 339 388 z "},"…":{"ha":883,"x_min":100,"x_max":783,"o":"m 100 51 q 116 90 100 74 q 156 106 132 106 q 195 90 179 106 q 211 51 211 74 q 195 12 211 28 q 156 -4 179 -4 q 116 12 132 -4 q 100 51 100 28 m 402 12 q 394 20 402 12 q 386 51 386 28 q 402 90 386 75 q 442 106 418 106 q 480 90 464 106 q 496 51 496 75 q 481 12 496 28 q 442 -4 465 -4 q 402 12 418 -4 m 672 51 q 688 90 672 74 q 728 106 704 106 q 767 90 751 106 q 783 51 783 74 q 767 12 783 28 q 728 -4 751 -4 q 688 12 704 -4 q 672 51 672 28 z "}," ":{"ha":256,"x_min":0,"x_max":0,"o":""},"‹":{"ha":435,"x_min":71,"x_max":367,"o":"m 288 58 l 71 314 l 71 351 l 288 606 l 367 606 l 135 331 l 367 58 l 288 58 z "},"›":{"ha":436,"x_min":69,"x_max":365,"o":"m 365 314 l 149 58 l 69 58 l 301 331 l 69 606 l 149 606 l 365 351 l 365 314 z "}," ":{"ha":319,"x_min":0,"x_max":0,"o":""},"€":{"ha":960,"x_min":64,"x_max":890,"o":"m 622 -17 q 336 87 453 -17 q 192 364 219 190 l 64 364 l 64 426 l 183 426 q 182 493 182 449 q 188 581 182 525 l 64 581 l 64 644 l 199 644 q 349 895 238 801 q 622 989 461 989 q 868 917 765 989 l 868 844 q 626 922 760 922 q 400 848 494 922 q 271 644 306 774 l 650 644 l 650 581 l 258 581 q 251 493 251 535 q 254 426 251 463 l 650 426 l 650 364 l 264 364 q 387 133 290 218 q 626 49 483 49 q 890 147 785 49 l 890 71 q 622 -17 782 -17 z "},"™":{"ha":954,"x_min":35,"x_max":868,"o":"m 458 544 l 458 972 l 508 972 l 665 775 l 818 972 l 868 972 l 868 544 l 814 544 l 814 888 l 678 718 l 650 718 l 513 888 l 513 544 l 458 544 m 176 544 l 176 925 l 35 925 l 35 972 l 378 972 l 378 925 l 229 925 l 229 544 l 176 544 z "},"◼":{"ha":667,"x_min":0,"x_max":667,"o":"m 0 667 l 667 667 l 667 0 l 0 0 l 0 667 z "},"ﬁ":{"ha":793,"x_min":39,"x_max":671,"o":"m 243 0 l 175 0 l 175 603 l 39 603 l 39 664 l 175 664 l 175 793 q 221 931 175 881 q 353 982 267 982 q 483 954 429 982 l 483 890 q 367 919 428 919 q 275 883 307 919 q 243 778 243 846 l 243 664 l 649 664 l 649 0 l 581 0 l 581 603 l 243 603 l 243 0 m 576 858 q 568 867 576 858 q 560 897 560 875 q 576 936 560 919 q 615 953 592 953 q 655 936 639 953 q 671 897 671 919 q 655 858 671 875 q 615 842 639 842 q 576 858 592 842 z "},"ﬂ":{"ha":847,"x_min":39,"x_max":814,"o":"m 725 -17 q 623 19 665 -17 q 581 139 581 54 l 581 603 l 243 603 l 243 0 l 175 0 l 175 603 l 39 603 l 39 664 l 175 664 l 175 793 q 221 931 175 881 q 353 982 267 982 q 483 954 429 982 l 483 890 q 367 919 428 919 q 275 883 307 919 q 243 778 243 846 l 243 664 l 581 664 l 581 972 l 649 972 l 649 154 q 746 49 649 49 q 814 68 782 49 l 814 3 q 725 -17 781 -17 z "},"ﬃ":{"ha":1199,"x_min":39,"x_max":1076,"o":"m 243 0 l 175 0 l 175 603 l 39 603 l 39 664 l 175 664 l 175 793 q 221 931 175 881 q 353 982 267 982 q 483 954 429 982 l 483 890 q 367 919 428 919 q 275 883 307 919 q 243 778 243 846 l 243 664 l 581 664 l 581 793 q 626 931 581 881 q 758 982 672 982 q 889 954 833 982 l 889 890 q 772 919 833 919 q 649 778 649 919 l 649 664 l 1054 664 l 1054 0 l 986 0 l 986 603 l 649 603 l 649 0 l 581 0 l 581 603 l 243 603 l 243 0 m 981 858 q 973 867 981 858 q 965 897 965 875 q 981 936 965 919 q 1021 953 997 953 q 1060 936 1044 953 q 1076 897 1076 919 q 1060 858 1076 875 q 1021 842 1044 842 q 981 858 997 842 z "},"ﬄ":{"ha":1251,"x_min":39,"x_max":1219,"o":"m 243 0 l 175 0 l 175 603 l 39 603 l 39 664 l 175 664 l 175 793 q 221 931 175 881 q 353 982 267 982 q 483 954 429 982 l 483 890 q 367 919 428 919 q 275 883 307 919 q 243 778 243 846 l 243 664 l 581 664 l 581 793 q 626 931 581 881 q 758 982 672 982 q 889 954 833 982 l 889 890 q 772 919 833 919 q 649 778 649 919 l 649 664 l 986 664 l 986 972 l 1054 972 l 1054 154 q 1150 49 1054 49 q 1219 68 1188 49 l 1219 3 q 1131 -17 1186 -17 q 1028 19 1069 -17 q 986 139 986 54 l 986 603 l 649 603 l 649 0 l 581 0 l 581 603 l 243 603 l 243 0 z "}}}
